<svg width="151" height="24" viewBox="0 0 151 24" fill="none" xmlns="http://www.w3.org/2000/svg">
    <path d="M7.616 0.384001H0V22.72H7.616V0.384001Z" fill="white"/>
    <path d="M27.3735 23.104C32.7495 23.104 36.6535 21.824 39.1175 19.232C39.1495 20.704 39.1815 22.72 39.1815 22.72H44.6855V10.208H27.5015V14.432H37.0695V14.496C37.0695 14.624 36.9735 14.816 36.8135 15.072C36.6215 15.296 36.2695 15.584 35.8215 15.872C35.3415 16.192 34.7655 16.48 34.0935 16.736C33.4215 16.992 32.5255 17.216 31.3735 17.408C30.2535 17.568 29.0055 17.664 27.6615 17.664C24.5575 17.664 22.2535 17.088 20.7175 15.904C19.2135 14.72 18.4455 13.312 18.4455 11.68V11.328C18.4455 7.328 21.5495 5.312 27.7255 5.312C32.6855 5.312 35.5655 6.368 36.3975 8.48H44.4935V8.448C44.4935 7.744 44.3655 7.072 44.1095 6.4C43.8855 5.728 43.4055 4.992 42.6695 4.16C41.9655 3.36 41.0375 2.656 39.9175 2.08C38.7975 1.472 37.2295 0.992001 35.2455 0.576C33.2615 0.191999 30.9575 0 28.3655 0H26.9575C24.2695 0 21.9015 0.224001 19.8855 0.736C17.8375 1.248 16.2375 1.856 15.0855 2.624C13.9335 3.36 12.9735 4.256 12.2375 5.28C11.5015 6.304 11.0215 7.296 10.7975 8.192C10.5735 9.12 10.4775 10.048 10.4775 11.04V11.872C10.4775 12.864 10.6055 13.824 10.8615 14.784C11.1495 15.712 11.6615 16.704 12.3975 17.76C13.1335 18.784 14.0935 19.68 15.2455 20.448C16.4295 21.216 17.9975 21.856 19.9495 22.368C21.9335 22.848 24.1735 23.104 26.7015 23.104H27.3735Z" fill="white"/>
    <path d="M48.157 0.351999V22.752H55.677V7.904L72.253 22.752H79.805V0.351999H72.253V14.432L56.669 0.351999H48.157Z" fill="white"/>
    <path d="M91.2722 0.384001H83.6562V22.72H91.2722V0.384001Z" fill="white"/>
    <path d="M104.022 22.752H111.734V5.664H122.262V0.351999H93.5257V5.664H104.022V22.752Z" fill="white"/>
    <path d="M124.532 0.288V22.72H150.644V17.504H132.084V13.824H149.876V8.704H132.084V5.376H150.292V0.288H124.532Z" fill="white"/>
</svg>