<svg width="328" height="48" viewBox="0 0 328 48" fill="none" xmlns="http://www.w3.org/2000/svg">
    <g filter="url(#filter0_b_5_4942)">
    <rect width="328" height="48" rx="14" fill="white" fill-opacity="0.1"/>
    <path d="M111.719 17.2656H109.969V31.4062H111.719V17.2656ZM100.422 23.2812C100.414 26.3516 101.969 28.2812 104.109 28.2812C106.227 28.2812 107.789 26.3516 107.797 23.2812C107.789 20.2344 106.227 18.2969 104.109 18.2969C101.969 18.2969 100.414 20.2344 100.422 23.2812ZM102.094 23.2812C102.094 21.125 102.914 19.8594 104.109 19.8594C105.297 19.8594 106.109 21.125 106.109 23.2812C106.109 25.4531 105.297 26.7109 104.109 26.7188C102.914 26.7109 102.094 25.4531 102.094 23.2812ZM119.781 18.7969H114.234V27.75H119.781V23.875H121.422V30.7031H123.078V17.5156H121.422V22.4688H119.781V18.7969ZM115.859 26.375V20.1719H118.156V26.375H115.859ZM124.312 31.3906H125.984V17.2656H124.312V31.3906ZM131.625 17.7188C129.469 17.7266 127.875 19.0469 127.875 20.9062C127.875 22.7734 129.469 24.0859 131.625 24.0938C133.766 24.0859 135.359 22.7734 135.375 20.9062C135.359 19.0469 133.766 17.7266 131.625 17.7188ZM129.562 20.9062C129.562 19.8359 130.438 19.1484 131.625 19.1562C132.812 19.1484 133.68 19.8359 133.688 20.9062C133.68 22 132.812 22.6875 131.625 22.6875C130.438 22.6875 129.562 22 129.562 20.9062ZM130.016 26.375H137.656V27.4219H130.047V31.2188H139.812V29.8438H131.75V28.7031H139.391V25.0156H130.016V26.375ZM137.641 24.4062H139.391V17.2656H137.641V24.4062ZM154.359 28.3125H148.734V26.0156H153.156V24.5938H144.719V22.7656H152.828V18.2344H142.953V19.6406H151.109V21.3906H142.984V26.0156H147.016V28.3125H141.453V29.75H154.359V28.3125ZM171.984 28.3125H166.359V26.0156H170.781V24.5938H162.344V22.7656H170.453V18.2344H160.578V19.6406H168.734V21.3906H160.609V26.0156H164.641V28.3125H159.078V29.75H171.984V28.3125ZM184.141 18.6406H174.266V20.0469H182.406V20.2344C182.406 22.0703 182.406 24.1172 181.859 26.8906L183.625 27.0469C184.141 24.0703 184.141 22.125 184.141 20.2344V18.6406ZM172.906 29.4531H185.781V28.0312H172.906V29.4531ZM198.5 17.2812H196.75V27.4844H198.5V17.2812ZM186.984 21.7344C186.984 23.8203 188.648 25.2812 190.797 25.2812C192.945 25.2812 194.602 23.8203 194.594 21.7344C194.602 19.6797 192.945 18.2109 190.797 18.2031C188.648 18.2109 186.984 19.6797 186.984 21.7344ZM188.688 21.7344C188.68 20.5156 189.586 19.7188 190.797 19.7188C191.977 19.7188 192.891 20.5156 192.891 21.7344C192.891 22.9844 191.977 23.7656 190.797 23.7656C189.586 23.7656 188.68 22.9844 188.688 21.7344ZM189.156 31.1094H198.891V29.7031H190.906V26.4531H189.156V31.1094ZM211.625 17.2656H209.906V31.3906H211.625V24.3281H213.797V22.8906H211.625V17.2656ZM200.484 20.8281H208.812V19.4375H205.562V17.4688H203.828V19.4375H200.484V20.8281ZM201.141 25.0781C201.125 27.0234 202.641 28.3906 204.703 28.3906C206.734 28.3906 208.242 27.0234 208.25 25.0781C208.242 23.125 206.734 21.7422 204.703 21.75C202.641 21.7422 201.125 23.125 201.141 25.0781ZM202.797 25.0781C202.789 23.9297 203.594 23.1719 204.703 23.1719C205.789 23.1719 206.578 23.9297 206.594 25.0781C206.578 26.2266 205.789 26.9609 204.703 26.9531C203.594 26.9609 202.789 26.2266 202.797 25.0781ZM226.188 17.2656H224.438V31.3906H226.188V17.2656ZM214.484 27.5L215.391 28.8906C220.336 26.5391 221.969 22.9688 221.969 18.7656H215.203V20.1406H220.203C219.891 23.3516 218.188 25.7422 214.484 27.5Z" fill="white"/>
    <rect x="0.5" y="0.5" width="327" height="47" rx="13.5" stroke="white"/>
    </g>
    <defs>
    <filter id="filter0_b_5_4942" x="-20" y="-20" width="368" height="88" filterUnits="userSpaceOnUse" color-interpolation-filters="sRGB">
    <feFlood flood-opacity="0" result="BackgroundImageFix"/>
    <feGaussianBlur in="BackgroundImageFix" stdDeviation="10"/>
    <feComposite in2="SourceAlpha" operator="in" result="effect1_backgroundBlur_5_4942"/>
    <feBlend mode="normal" in="SourceGraphic" in2="effect1_backgroundBlur_5_4942" result="shape"/>
    </filter>
    </defs>
</svg>