<svg width="328" height="48" viewBox="0 0 328 48" fill="none" xmlns="http://www.w3.org/2000/svg">
    <rect width="328" height="48" rx="14" fill="#FFE812"/>
    <g clip-path="url(#clip0_5_4944)">
    <path d="M111.5 37.5C111.5 38.8807 110.381 40 109 40H82C80.6193 40 79.5 38.8807 79.5 37.5V10.5C79.5 9.11925 80.6193 8 82 8H109C110.381 8 111.5 9.11925 111.5 10.5V37.5Z" fill="#FFE812"/>
    <path d="M95.5 12.5C88.3203 12.5 82.5 17.0891 82.5 22.75C82.5 26.4099 84.9333 29.6213 88.5935 31.4346C88.3944 32.1214 87.3139 35.8526 87.2709 36.1458C87.2709 36.1458 87.245 36.366 87.3876 36.45C87.5303 36.534 87.698 36.4688 87.698 36.4688C88.107 36.4116 92.4409 33.3674 93.191 32.8388C93.9404 32.9449 94.712 33 95.5 33C102.68 33 108.5 28.411 108.5 22.75C108.5 17.0891 102.68 12.5 95.5 12.5Z" fill="black"/>
    <path d="M88.3125 26.3281C87.8989 26.3281 87.5625 26.0069 87.5625 25.6119V21.1562H86.3923C85.9864 21.1562 85.6562 20.8268 85.6562 20.4219C85.6562 20.017 85.9865 19.6875 86.3923 19.6875H90.2327C90.6386 19.6875 90.9688 20.017 90.9688 20.4219C90.9688 20.8268 90.6385 21.1562 90.2327 21.1562H89.0625V25.6119C89.0625 26.0069 88.7261 26.3281 88.3125 26.3281ZM94.889 26.3184C94.5762 26.3184 94.337 26.1914 94.2649 25.9871L93.8935 25.0149L91.6065 25.0147L91.2349 25.9876C91.163 26.1915 90.9239 26.3184 90.6111 26.3184C90.4466 26.3185 90.284 26.2832 90.1344 26.2149C89.9276 26.1195 89.7289 25.8573 89.9566 25.1499L91.7506 20.4279C91.877 20.0687 92.2609 19.6987 92.7494 19.6876C93.2393 19.6986 93.6231 20.0688 93.7498 20.4286L95.543 25.1485C95.7712 25.8575 95.5725 26.1199 95.3658 26.215C95.2161 26.2832 95.0535 26.3185 94.889 26.3184C94.8889 26.3184 94.889 26.3184 94.889 26.3184V26.3184ZM93.4991 23.6864L92.75 21.5583L92.0009 23.6864H93.4991V23.6864ZM96.75 26.2188C96.3536 26.2188 96.0312 25.9103 96.0312 25.5312V20.4375C96.0312 20.0239 96.3747 19.6875 96.7969 19.6875C97.219 19.6875 97.5625 20.0239 97.5625 20.4375V24.8438H99.1562C99.5526 24.8438 99.875 25.1522 99.875 25.5312C99.875 25.9103 99.5526 26.2188 99.1562 26.2188H96.75ZM100.917 26.3184C100.503 26.3184 100.167 25.982 100.167 25.5684V20.4375C100.167 20.0239 100.503 19.6875 100.917 19.6875C101.33 19.6875 101.667 20.0239 101.667 20.4375V22.0495L103.759 19.957C103.867 19.8494 104.015 19.7901 104.175 19.7901C104.362 19.7901 104.551 19.8709 104.691 20.0116C104.823 20.1429 104.901 20.3118 104.912 20.4871C104.923 20.664 104.864 20.8261 104.746 20.9438L103.037 22.6526L104.883 25.0984C104.943 25.1768 104.986 25.2664 105.011 25.3617C105.036 25.4571 105.041 25.5565 105.027 25.654C105.014 25.7516 104.981 25.8456 104.931 25.9305C104.881 26.0154 104.815 26.0895 104.736 26.1486C104.607 26.2472 104.448 26.3004 104.285 26.3C104.169 26.3005 104.054 26.2739 103.95 26.2221C103.846 26.1703 103.756 26.0949 103.686 26.0019L101.927 23.6714L101.667 23.9316V25.568C101.667 25.7669 101.588 25.9576 101.447 26.0983C101.306 26.239 101.116 26.3181 100.917 26.3184V26.3184Z" fill="#FFE812"/>
    </g>
    <path d="M127.312 18.6562H120.828V20.0625H125.586C125.531 20.8047 125.414 21.5 125.234 22.1641L120.094 22.4844L120.312 23.9844L124.711 23.5703C123.891 25.2422 122.43 26.6562 119.984 27.8594L120.938 29.1719C126.141 26.5859 127.305 22.9219 127.312 18.6562ZM129.297 31.3594H131.031V24.2188H133.125V22.7969H131.031V17.2656H129.297V31.3594ZM141.141 18.6562H134.656V20.0625H139.414C139.359 20.8047 139.242 21.5 139.062 22.1641L133.922 22.4844L134.141 23.9844L138.539 23.5703C137.719 25.2422 136.258 26.6562 133.812 27.8594L134.766 29.1719C139.969 26.5859 141.133 22.9219 141.141 18.6562ZM143.125 31.3594H144.859V24.2188H146.953V22.7969H144.859V17.2656H143.125V31.3594ZM154.047 18.0625C151.039 18.0703 148.805 19.5781 148.812 21.875C148.805 23.9922 150.625 25.4062 153.188 25.6641V28.25H147.625V29.6719H160.531V28.25H154.906V25.6641C157.5 25.4062 159.32 23.9922 159.312 21.875C159.32 19.5781 157.078 18.0703 154.047 18.0625ZM150.516 21.875C150.508 20.3984 151.984 19.4609 154.047 19.4688C156.141 19.4609 157.609 20.3984 157.609 21.875C157.609 23.3984 156.141 24.3125 154.047 24.3125C151.984 24.3125 150.508 23.3984 150.516 21.875ZM174.359 28.3125H168.734V26.0156H173.156V24.5938H164.719V22.7656H172.828V18.2344H162.953V19.6406H171.109V21.3906H162.984V26.0156H167.016V28.3125H161.453V29.75H174.359V28.3125ZM191.984 28.3125H186.359V26.0156H190.781V24.5938H182.344V22.7656H190.453V18.2344H180.578V19.6406H188.734V21.3906H180.609V26.0156H184.641V28.3125H179.078V29.75H191.984V28.3125ZM204.141 18.6406H194.266V20.0469H202.406V20.2344C202.406 22.0703 202.406 24.1172 201.859 26.8906L203.625 27.0469C204.141 24.0703 204.141 22.125 204.141 20.2344V18.6406ZM192.906 29.4531H205.781V28.0312H192.906V29.4531ZM218.5 17.2812H216.75V27.4844H218.5V17.2812ZM206.984 21.7344C206.984 23.8203 208.648 25.2812 210.797 25.2812C212.945 25.2812 214.602 23.8203 214.594 21.7344C214.602 19.6797 212.945 18.2109 210.797 18.2031C208.648 18.2109 206.984 19.6797 206.984 21.7344ZM208.688 21.7344C208.68 20.5156 209.586 19.7188 210.797 19.7188C211.977 19.7188 212.891 20.5156 212.891 21.7344C212.891 22.9844 211.977 23.7656 210.797 23.7656C209.586 23.7656 208.68 22.9844 208.688 21.7344ZM209.156 31.1094H218.891V29.7031H210.906V26.4531H209.156V31.1094ZM231.625 17.2656H229.906V31.3906H231.625V24.3281H233.797V22.8906H231.625V17.2656ZM220.484 20.8281H228.812V19.4375H225.562V17.4688H223.828V19.4375H220.484V20.8281ZM221.141 25.0781C221.125 27.0234 222.641 28.3906 224.703 28.3906C226.734 28.3906 228.242 27.0234 228.25 25.0781C228.242 23.125 226.734 21.7422 224.703 21.75C222.641 21.7422 221.125 23.125 221.141 25.0781ZM222.797 25.0781C222.789 23.9297 223.594 23.1719 224.703 23.1719C225.789 23.1719 226.578 23.9297 226.594 25.0781C226.578 26.2266 225.789 26.9609 224.703 26.9531C223.594 26.9609 222.789 26.2266 222.797 25.0781ZM246.188 17.2656H244.438V31.3906H246.188V17.2656ZM234.484 27.5L235.391 28.8906C240.336 26.5391 241.969 22.9688 241.969 18.7656H235.203V20.1406H240.203C239.891 23.3516 238.188 25.7422 234.484 27.5Z" fill="black"/>
    <defs>
    <clipPath id="clip0_5_4944">
    <rect width="32" height="32" fill="white" transform="translate(79.5 8)"/>
    </clipPath>
    </defs>
</svg>