<svg width="328" height="48" viewBox="0 0 328 48" fill="none" xmlns="http://www.w3.org/2000/svg">
    <rect x="1" y="1" width="326" height="46" rx="13" fill="white"/>
    <path d="M103 24.2989C103 23.4153 102.927 22.5268 102.771 21.6575H90.2618V26.6634H97.4252C97.1279 28.2779 96.1728 29.7061 94.7743 30.6136V33.8617H99.0479C101.558 31.5976 103 28.254 103 24.2989Z" fill="#4285F4"/>
    <path d="M90.262 37C93.8388 37 96.8552 35.8488 99.0529 33.8618L94.7793 30.6137C93.5903 31.4066 92.0553 31.8556 90.2668 31.8556C86.807 31.8556 83.8734 29.5676 82.8209 26.4915H78.4108V29.8399C80.6621 34.2296 85.2476 37 90.262 37Z" fill="#34A853"/>
    <path d="M82.816 26.4917C82.2604 24.8772 82.2604 23.1289 82.816 21.5144V18.166H78.4107C76.5298 21.8392 76.5298 26.1668 78.4107 29.8401L82.816 26.4917Z" fill="#FBBC04"/>
    <path d="M90.262 16.1453C92.1527 16.1166 93.9801 16.814 95.3494 18.0942L99.1357 14.3827C96.7382 12.1759 93.5561 10.9627 90.262 11.0009C85.2476 11.0009 80.6621 13.7713 78.4108 18.1658L82.816 21.5142C83.8637 18.4333 86.8021 16.1453 90.262 16.1453Z" fill="#EA4335"/>
    <path d="M122.625 22.2969H124.703C124.359 20.0781 122.43 18.5312 119.938 18.5312C116.977 18.5312 114.758 20.7109 114.766 24.3438C114.758 27.9297 116.875 30.1562 120 30.1562C122.797 30.1562 124.797 28.3516 124.797 25.4375V24.0781H120.203V25.6875H122.828C122.797 27.2969 121.711 28.3281 120 28.3281C118.109 28.3281 116.805 26.8984 116.812 24.3281C116.805 21.7812 118.133 20.3594 119.953 20.3594C121.328 20.3594 122.258 21.0938 122.625 22.2969ZM130.25 30.1719C132.734 30.1719 134.32 28.4141 134.312 25.7969C134.32 23.1562 132.734 21.4062 130.25 21.4062C127.773 21.4062 126.188 23.1562 126.188 25.7969C126.188 28.4141 127.773 30.1719 130.25 30.1719ZM128.203 25.7812C128.203 24.2266 128.883 22.9766 130.266 22.9844C131.625 22.9766 132.305 24.2266 132.297 25.7812C132.305 27.3359 131.625 28.5781 130.266 28.5781C128.883 28.5781 128.203 27.3359 128.203 25.7812ZM139.562 30.1719C142.047 30.1719 143.633 28.4141 143.625 25.7969C143.633 23.1562 142.047 21.4062 139.562 21.4062C137.086 21.4062 135.5 23.1562 135.5 25.7969C135.5 28.4141 137.086 30.1719 139.562 30.1719ZM137.516 25.7812C137.516 24.2266 138.195 22.9766 139.578 22.9844C140.938 22.9766 141.617 24.2266 141.609 25.7812C141.617 27.3359 140.938 28.5781 139.578 28.5781C138.195 28.5781 137.516 27.3359 137.516 25.7812ZM148.875 33.3594C151.164 33.3594 152.844 32.3125 152.844 30.1406V21.5156H150.875V22.9062H150.781C150.469 22.3047 149.836 21.4062 148.344 21.4062C146.375 21.4062 144.828 22.8984 144.828 25.6875C144.828 28.4531 146.367 29.875 148.328 29.875C149.789 29.875 150.469 29.0938 150.781 28.4688H150.875V30.0938C150.875 31.3359 150.102 31.8516 148.906 31.8594C147.883 31.8516 147.188 31.5078 147.047 30.7656H145.062C145.195 32.3594 146.625 33.3594 148.875 33.3594ZM146.859 25.7188C146.859 24.1719 147.547 23.0391 148.875 23.0312C150.172 23.0391 150.891 24.1016 150.891 25.7188C150.891 27.3438 150.164 28.3125 148.875 28.3125C147.562 28.3125 146.859 27.2812 146.859 25.7188ZM156.75 18.6875H154.75V30H156.75V18.6875ZM162.422 30.1719C164.391 30.1719 165.75 29.2031 166.109 27.7344H164.156C163.898 28.2422 163.312 28.6172 162.438 28.6094C161.148 28.6172 160.297 27.7578 160.266 26.3125H166.188V25.6875C166.188 22.7109 164.391 21.4062 162.312 21.4062C159.891 21.4062 158.297 23.1875 158.297 25.8125C158.297 28.4688 159.867 30.1719 162.422 30.1719ZM160.273 24.9531C160.344 23.875 161.148 22.9531 162.344 22.9531C163.492 22.9531 164.273 23.7969 164.281 24.9531H160.273ZM180.156 28.3125H174.531V26.0156H178.953V24.5938H170.516V22.7656H178.625V18.2344H168.75V19.6406H176.906V21.3906H168.781V26.0156H172.812V28.3125H167.25V29.75H180.156V28.3125ZM197.781 28.3125H192.156V26.0156H196.578V24.5938H188.141V22.7656H196.25V18.2344H186.375V19.6406H194.531V21.3906H186.406V26.0156H190.438V28.3125H184.875V29.75H197.781V28.3125ZM209.938 18.6406H200.062V20.0469H208.203V20.2344C208.203 22.0703 208.203 24.1172 207.656 26.8906L209.422 27.0469C209.938 24.0703 209.938 22.125 209.938 20.2344V18.6406ZM198.703 29.4531H211.578V28.0312H198.703V29.4531ZM224.297 17.2812H222.547V27.4844H224.297V17.2812ZM212.781 21.7344C212.781 23.8203 214.445 25.2812 216.594 25.2812C218.742 25.2812 220.398 23.8203 220.391 21.7344C220.398 19.6797 218.742 18.2109 216.594 18.2031C214.445 18.2109 212.781 19.6797 212.781 21.7344ZM214.484 21.7344C214.477 20.5156 215.383 19.7188 216.594 19.7188C217.773 19.7188 218.688 20.5156 218.688 21.7344C218.688 22.9844 217.773 23.7656 216.594 23.7656C215.383 23.7656 214.477 22.9844 214.484 21.7344ZM214.953 31.1094H224.688V29.7031H216.703V26.4531H214.953V31.1094ZM237.422 17.2656H235.703V31.3906H237.422V24.3281H239.594V22.8906H237.422V17.2656ZM226.281 20.8281H234.609V19.4375H231.359V17.4688H229.625V19.4375H226.281V20.8281ZM226.938 25.0781C226.922 27.0234 228.438 28.3906 230.5 28.3906C232.531 28.3906 234.039 27.0234 234.047 25.0781C234.039 23.125 232.531 21.7422 230.5 21.75C228.438 21.7422 226.922 23.125 226.938 25.0781ZM228.594 25.0781C228.586 23.9297 229.391 23.1719 230.5 23.1719C231.586 23.1719 232.375 23.9297 232.391 25.0781C232.375 26.2266 231.586 26.9609 230.5 26.9531C229.391 26.9609 228.586 26.2266 228.594 25.0781ZM251.984 17.2656H250.234V31.3906H251.984V17.2656ZM240.281 27.5L241.188 28.8906C246.133 26.5391 247.766 22.9688 247.766 18.7656H241V20.1406H246C245.688 23.3516 243.984 25.7422 240.281 27.5Z" fill="#727272"/>
    <rect x="1" y="1" width="326" height="46" rx="13" stroke="#8B8B8B" stroke-width="2"/>
</svg>                