<svg fill="#727272"
      width="18" height="14" viewBox="0 0 18 14" xmlns="http://www.w3.org/2000/svg">
    <path d="M2.33329 13.6666C1.87496 13.6666 1.48274 13.5035 1.15663 13.1774C0.829959 12.8508 0.666626 12.4583 0.666626 11.9999V1.99992C0.666626 1.54159 0.829959 1.14936 1.15663 0.823252C1.48274 0.496585 1.87496 0.333252 2.33329 0.333252H15.6666C16.125 0.333252 16.5175 0.496585 16.8441 0.823252C17.1702 1.14936 17.3333 1.54159 17.3333 1.99992V11.9999C17.3333 12.4583 17.1702 12.8508 16.8441 13.1774C16.5175 13.5035 16.125 13.6666 15.6666 13.6666H2.33329ZM8.99996 7.68742C9.0694 7.68742 9.14218 7.67686 9.21829 7.65575C9.29496 7.6352 9.36801 7.60409 9.43746 7.56242L15.3333 3.87492C15.4444 3.80547 15.5277 3.71881 15.5833 3.61492C15.6388 3.51047 15.6666 3.39575 15.6666 3.27075C15.6666 2.99297 15.5486 2.78464 15.3125 2.64575C15.0763 2.50686 14.8333 2.51381 14.5833 2.66659L8.99996 6.16658L3.41663 2.66659C3.16663 2.51381 2.92357 2.5102 2.68746 2.65575C2.45135 2.80186 2.33329 3.00686 2.33329 3.27075C2.33329 3.40964 2.36107 3.53103 2.41663 3.63492C2.47218 3.73936 2.55551 3.81936 2.66663 3.87492L8.56246 7.56242C8.6319 7.60409 8.70496 7.6352 8.78163 7.65575C8.85774 7.67686 8.93051 7.68742 8.99996 7.68742Z"/>
</svg>