<svg fill="#727272"
      width="14" height="18" viewBox="0 0 14 18" xmlns="http://www.w3.org/2000/svg">
  <path d="M1.99998 17.3334C1.54165 17.3334 1.14929 17.1702 0.822896 16.8438C0.496507 16.5174 0.333313 16.1251 0.333313 15.6667V2.33341C0.333313 1.87508 0.496507 1.48272 0.822896 1.15633C1.14929 0.829943 1.54165 0.666748 1.99998 0.666748H7.97915C8.20137 0.666748 8.41317 0.708415 8.61456 0.791748C8.81595 0.875081 8.99303 0.993137 9.14581 1.14591L13.1875 5.18758C13.3403 5.34036 13.4583 5.51744 13.5416 5.71883C13.625 5.92022 13.6666 6.13203 13.6666 6.35425V15.6667C13.6666 16.1251 13.5035 16.5174 13.1771 16.8438C12.8507 17.1702 12.4583 17.3334 12 17.3334H1.99998ZM12 5.66675H8.66665C8.43054 5.66675 8.23262 5.58689 8.0729 5.42716C7.91317 5.26744 7.83331 5.06953 7.83331 4.83341V2.33341H1.99998V15.6667H12V5.66675Z"/>
  <rect class="fill-[#727272] group-hover:fill-white" x="3.66663" y="7.33325" width="6.66667" height="1.66667" rx="0.833333" fill="#727272"/>
  <rect class="fill-[#727272] group-hover:fill-white" x="3.66663" y="9.83325" width="6.66667" height="1.66667" rx="0.833333" fill="#727272"/>
  <rect class="fill-[#727272] group-hover:fill-white" x="3.66663" y="12.3333" width="6.66667" height="1.66667" rx="0.833333" fill="#727272"/>
</svg>