    <svg width="40" height="36" viewBox="0 0 40 36" fill="none" xmlns="http://www.w3.org/2000/svg">
        <mask id="mask0_5_89" style="mask-type:alpha" maskUnits="userSpaceOnUse" x="-4" y="-4" width="48" height="48">
            <rect x="-4" y="-4" width="48" height="48" fill="#D9D9D9"/>
        </mask>
        <g mask="url(#mask0_5_89)">
        <path d="M4 36C2.9 36 1.95867 35.6087 1.176 34.826C0.392 34.042 0 33.1 0 32V8C0 6.9 0.392 5.95867 1.176 5.176C1.95867 4.392 2.9 4 4 4H24.2C24.0667 4.66667 24 5.33333 24 6C24 6.66667 24.0667 7.33333 24.2 8H4L20 18L27.3 13.45C27.7667 13.8833 28.2753 14.258 28.826 14.574C29.3753 14.8913 29.95 15.1667 30.55 15.4L20 22L4 12V32H36V15.8C36.7667 15.6333 37.4833 15.4 38.15 15.1C38.8167 14.8 39.4333 14.4333 40 14V32C40 33.1 39.6087 34.042 38.826 34.826C38.042 35.6087 37.1 36 36 36H4Z" fill="white"/>
        <path d="M29.75 10.25C30.9167 11.4167 32.3333 12 34 12C35.6667 12 37.0833 11.4167 38.25 10.25C39.4167 9.08333 40 7.66667 40 6C40 4.33333 39.4167 2.91667 38.25 1.75C37.0833 0.583333 35.6667 0 34 0C32.3333 0 30.9167 0.583333 29.75 1.75C28.5833 2.91667 28 4.33333 28 6C28 7.66667 28.5833 9.08333 29.75 10.25Z" fill="#FA5252"/>
        </g>
    </svg>