<svg width="27.19" height="54.03" viewBox="0 0 28 55" fill="none" xmlns="http://www.w3.org/2000/svg">
    <path d="M12.0984 0.897705C12.7977 1.24736 13.0075 1.73687 12.8677 2.5061C12.518 5.3033 12.4481 8.03057 13.1474 10.7578C13.6369 12.7858 14.6159 14.4641 15.8747 16.0026C17.553 18.0306 19.3712 19.9187 21.1194 21.9467C24.1264 25.5131 26.2243 29.569 27.0635 34.1145C27.9726 39.0096 27.3432 43.625 24.6858 47.8907C22.3782 51.4571 19.2313 53.8348 15.0355 54.8837C14.0565 55.0935 13.4271 54.4641 13.567 53.4152C13.8467 51.4571 14.1963 49.569 14.3362 47.611C14.546 44.604 13.6369 41.8068 12.0285 39.2194C10.2803 36.4921 8.18237 34.0446 6.08447 31.597C3.42713 28.4501 1.53902 24.8837 0.699856 20.8278C0.000555754 17.3313 0.0704858 13.8348 1.39916 10.4781C3.14741 5.93267 6.36418 2.64596 11.1194 1.03757C11.2593 0.967635 11.3991 0.897705 11.4691 0.897705C11.6789 0.897705 11.8887 0.897705 12.0984 0.897705Z" fill="white"/>
</svg>