  <svg width="89" height="44" viewBox="0 0 89 44" fill="none" xmlns="http://www.w3.org/2000/svg">
      <path d="M64.6426 25.0284C64.2282 25.8571 63.6481 26.1057 62.7365 25.94C59.4215 25.5256 56.1894 25.4427 52.9573 26.2715C50.5539 26.8516 48.5649 28.0118 46.7417 29.5036C44.3383 31.4926 42.1007 33.6473 39.6973 35.7192C35.4707 39.2828 30.664 41.769 25.2772 42.7635C19.4759 43.8409 14.0062 43.095 8.95087 39.9458C4.72426 37.2109 1.90653 33.4816 0.66341 28.5091C0.414786 27.3488 1.16066 26.603 2.40377 26.7687C4.72426 27.1002 6.96187 27.5146 9.28236 27.6803C12.846 27.929 16.161 26.8516 19.2273 24.9455C22.4594 22.8736 25.36 20.3874 28.2606 17.9012C31.99 14.7519 36.2166 12.5143 41.0233 11.5198C45.1671 10.6911 49.3108 10.7739 53.2888 12.3486C58.6756 14.4204 62.5707 18.2326 64.4768 23.8681C64.5597 24.0339 64.6426 24.1996 64.6426 24.2825C64.6426 24.5311 64.6426 24.7797 64.6426 25.0284Z" fill="white"/>
      <path d="M38 6.9445C37.7885 7.35476 37.4923 7.47783 37.0269 7.39578C35.3346 7.19065 33.6846 7.14963 32.0346 7.55988C30.8077 7.84706 29.7923 8.42142 28.8615 9.15988C27.6346 10.1445 26.4923 11.2112 25.2654 12.2368C23.1077 14.0009 20.6538 15.2317 17.9038 15.724C14.9423 16.2573 12.15 15.8881 9.56923 14.3291C7.41154 12.9753 5.97308 11.1291 5.33846 8.66757C5.21154 8.09322 5.59231 7.72398 6.22692 7.80604C7.41154 7.97014 8.55384 8.17527 9.73846 8.25732C11.5577 8.38039 13.25 7.84706 14.8154 6.90347C16.4654 5.87783 17.9462 4.64707 19.4269 3.4163C21.3308 1.85732 23.4885 0.749633 25.9423 0.257326C28.0577 -0.15293 30.1731 -0.111904 32.2038 0.667583C34.9538 1.69322 36.9423 3.5804 37.9154 6.37014C37.9577 6.45219 38 6.53424 38 6.57527C38 6.69835 38 6.82142 38 6.9445Z" fill="white"/>
      <path d="M89 30.9445C88.7885 31.3548 88.4923 31.4778 88.0269 31.3958C86.3346 31.1907 84.6846 31.1496 83.0346 31.5599C81.8077 31.8471 80.7923 32.4214 79.8615 33.1599C78.6346 34.1445 77.4923 35.2112 76.2654 36.2368C74.1077 38.0009 71.6538 39.2317 68.9038 39.724C65.9423 40.2573 63.15 39.8881 60.5692 38.3291C58.4115 36.9753 56.9731 35.1291 56.3385 32.6676C56.2115 32.0932 56.5923 31.724 57.2269 31.806C58.4115 31.9701 59.5538 32.1753 60.7385 32.2573C62.5577 32.3804 64.25 31.8471 65.8154 30.9035C67.4654 29.8778 68.9462 28.6471 70.4269 27.4163C72.3308 25.8573 74.4885 24.7496 76.9423 24.2573C79.0577 23.8471 81.1731 23.8881 83.2038 24.6676C85.9538 25.6932 87.9423 27.5804 88.9154 30.3701C88.9577 30.4522 89 30.5342 89 30.5753C89 30.6983 89 30.8214 89 30.9445Z" fill="white"/>
  </svg>                                        