<?xml version="1.0" encoding="UTF-8"?>
<!DOCTYPE svg PUBLIC "-//W3C//DTD SVG 1.1//EN" "http://www.w3.org/Graphics/SVG/1.1/DTD/svg11.dtd">
<svg xmlns="http://www.w3.org/2000/svg" version="1.1" width="912px" height="912px" style="shape-rendering:geometricPrecision; text-rendering:geometricPrecision; image-rendering:optimizeQuality; fill-rule:evenodd; clip-rule:evenodd" xmlns:xlink="http://www.w3.org/1999/xlink">
<g><path style="opacity:1" fill="#310bb7" d="M 94.5,-0.5 C 335.167,-0.5 575.833,-0.5 816.5,-0.5C 869.176,10.1756 900.842,41.8423 911.5,94.5C 911.5,335.167 911.5,575.833 911.5,816.5C 900.824,869.176 869.158,900.842 816.5,911.5C 575.833,911.5 335.167,911.5 94.5,911.5C 41.8244,900.824 10.1577,869.158 -0.5,816.5C -0.5,575.833 -0.5,335.167 -0.5,94.5C 10.1756,41.8244 41.8423,10.1577 94.5,-0.5 Z"/></g>
<g><path style="opacity:1" fill="#fefefe" d="M 438.5,290.5 C 442.594,289.705 445.761,291.038 448,294.5C 447.543,308.485 447.543,322.485 448,336.5C 449.543,352.802 455.21,367.469 465,380.5C 477.295,395.13 489.962,409.464 503,423.5C 530.558,457.845 541.224,496.845 535,540.5C 525.67,581.828 500.67,608.161 460,619.5C 455.266,618.933 452.766,616.266 452.5,611.5C 456.403,593.684 457.903,575.684 457,557.5C 453.992,542.487 447.992,528.82 439,516.5C 426.479,500.133 413.479,484.133 400,468.5C 377.395,437.346 368.729,402.68 374,364.5C 382.577,328.432 404.077,303.765 438.5,290.5 Z"/></g>
</svg>
