<svg width="57" height="37" viewBox="0 0 57 37" fill="none" xmlns="http://www.w3.org/2000/svg">
    <path d="M3.49509 0.773682C3.68157 0.866922 3.73752 0.997458 3.70022 1.20259C3.60698 1.94851 3.58833 2.67578 3.77481 3.40305C3.90535 3.94384 4.16642 4.3914 4.50208 4.80165C4.94964 5.34245 5.43448 5.84594 5.90068 6.38673C6.70255 7.33778 7.26199 8.41937 7.48576 9.63149C7.72819 10.9369 7.56035 12.1676 6.85173 13.3051C6.23635 14.2562 5.39719 14.8902 4.27831 15.1699C4.01724 15.2259 3.8494 15.0581 3.8867 14.7783C3.96129 14.2562 4.05453 13.7527 4.09183 13.2306C4.14777 12.4287 3.90535 11.6828 3.47644 10.9928C3.01024 10.2655 2.4508 9.61284 1.89136 8.96016C1.18274 8.121 0.679244 7.16995 0.455468 6.08837C0.268988 5.15597 0.287636 4.22356 0.641948 3.32846C1.10815 2.11634 1.96596 1.23988 3.23402 0.810978C3.27132 0.79233 3.30861 0.773682 3.32726 0.773682C3.3832 0.773682 3.43915 0.773682 3.49509 0.773682Z" fill="white"/>
    <path d="M2.856 28.144H0V36.52H2.856V28.144Z" fill="white"/>
    <path d="M10.2651 36.664C12.2811 36.664 13.7451 36.184 14.6691 35.212C14.6811 35.764 14.6931 36.52 14.6931 36.52H16.7571V31.828H10.3131V33.412H13.9011V33.436C13.9011 33.484 13.8651 33.556 13.8051 33.652C13.7331 33.736 13.6011 33.844 13.4331 33.952C13.2531 34.072 13.0371 34.18 12.7851 34.276C12.5331 34.372 12.1971 34.456 11.7651 34.528C11.3451 34.588 10.8771 34.624 10.3731 34.624C9.20906 34.624 8.34506 34.408 7.76906 33.964C7.20506 33.52 6.91706 32.992 6.91706 32.38V32.248C6.91706 30.748 8.08106 29.992 10.3971 29.992C12.2571 29.992 13.3371 30.388 13.6491 31.18H16.6851V31.168C16.6851 30.904 16.6371 30.652 16.5411 30.4C16.4571 30.148 16.2771 29.872 16.0011 29.56C15.7371 29.26 15.3891 28.996 14.9691 28.78C14.5491 28.552 13.9611 28.372 13.2171 28.216C12.4731 28.072 11.6091 28 10.6371 28H10.1091C9.10106 28 8.21306 28.084 7.45706 28.276C6.68906 28.468 6.08906 28.696 5.65706 28.984C5.22506 29.26 4.86506 29.596 4.58906 29.98C4.31306 30.364 4.13306 30.736 4.04906 31.072C3.96506 31.42 3.92906 31.768 3.92906 32.14V32.452C3.92906 32.824 3.97706 33.184 4.07306 33.544C4.18106 33.892 4.37306 34.264 4.64906 34.66C4.92506 35.044 5.28506 35.38 5.71706 35.668C6.16106 35.956 6.74906 36.196 7.48106 36.388C8.22506 36.568 9.06506 36.664 10.0131 36.664H10.2651Z" fill="white"/>
    <path d="M18.0589 28.132V36.532H20.8789V30.964L27.0949 36.532H29.9269V28.132H27.0949V33.412L21.2509 28.132H18.0589Z" fill="white"/>
    <path d="M34.2271 28.144H31.3711V36.52H34.2271V28.144Z" fill="white"/>
    <path d="M39.0082 36.532H41.9002V30.124H45.8482V28.132H35.0722V30.124H39.0082V36.532Z" fill="white"/>
    <path d="M46.6995 28.108V36.52H56.4915V34.564H49.5315V33.184H56.2035V31.264H49.5315V30.016H56.3595V28.108H46.6995Z" fill="white"/>
</svg>