<?xml version="1.0" standalone="no"?>
<!DOCTYPE svg PUBLIC "-//W3C//DTD SVG 20010904//EN"
 "http://www.w3.org/TR/2001/REC-SVG-20010904/DTD/svg10.dtd">
<svg version="1.0" xmlns="http://www.w3.org/2000/svg"
 width="302.000000pt" height="56.000000pt" viewBox="0 0 302.000000 56.000000"
 preserveAspectRatio="xMidYMid meet">

<g transform="translate(0.000000,56.000000) scale(0.100000,-0.100000)"
fill="#000000" stroke="none">
<path d="M10 500 c0 -57 1 -60 25 -60 l25 0 0 -160 0 -160 -25 0 c-24 0 -25
-3 -25 -60 l0 -60 145 0 145 0 0 60 c0 57 -1 60 -25 60 l-25 0 0 160 0 160 25
0 c24 0 25 3 25 60 l0 60 -145 0 -145 0 0 -60z"/>
<path d="M427 502 l-57 -58 0 -165 0 -165 58 -57 58 -57 212 0 212 0 0 155 0
155 -130 0 -130 0 0 -55 0 -55 45 0 45 0 0 -45 0 -45 -90 0 -90 0 0 170 0 170
80 0 80 0 0 -30 0 -30 95 0 95 0 0 26 c0 17 -18 47 -51 85 l-51 59 -162 0
-162 0 -57 -58z"/>
<path d="M1000 551 c0 -5 73 -130 163 -277 l163 -269 97 -3 c53 -1 97 0 97 3
0 4 -75 130 -167 281 l-167 274 -93 0 c-51 0 -93 -4 -93 -9z"/>
<path d="M1360 440 l0 -120 72 -117 c39 -65 75 -122 80 -127 4 -6 8 101 8 237
l0 247 -80 0 -80 0 0 -120z"/>
<path d="M1610 500 c0 -57 1 -60 25 -60 l25 0 0 -160 0 -160 -25 0 c-24 0 -25
-3 -25 -60 l0 -60 145 0 145 0 0 60 c0 57 -1 60 -25 60 l-25 0 0 160 0 160 25
0 c24 0 25 3 25 60 l0 60 -145 0 -145 0 0 -60z"/>
<path d="M1970 500 l0 -60 70 0 70 0 0 -220 0 -220 95 0 95 0 2 217 3 218 73
3 72 3 0 59 0 60 -240 0 -240 0 0 -60z"/>
<path d="M2520 280 l0 -280 250 0 250 0 0 85 0 85 -95 0 -95 0 0 -30 0 -31
-62 3 -63 3 -3 58 -3 57 91 0 90 0 0 55 0 55 -90 0 -90 0 0 55 0 55 70 0 c68
0 70 -1 70 -25 0 -25 1 -25 90 -25 l90 0 0 80 0 80 -250 0 -250 0 0 -280z"/>
<path d="M990 252 l0 -252 80 0 80 0 0 125 0 125 -72 117 c-39 65 -75 122 -80
128 -4 5 -8 -104 -8 -243z"/>
</g>
</svg>
