<svg width="20" height="16" viewBox="0 0 20 16" fill="none" xmlns="http://www.w3.org/2000/svg">
    <path d="M2 16C1.45 16 0.979167 15.8042 0.5875 15.4125C0.195833 15.0208 0 14.55 0 14V10C0.55 10 1.02083 9.80417 1.4125 9.4125C1.80417 9.02083 2 8.55 2 8C2 7.45 1.80417 6.97917 1.4125 6.5875C1.02083 6.19583 0.55 6 0 6V2C0 1.45 0.195833 0.979167 0.5875 0.5875C0.979167 0.195833 1.45 0 2 0H18C18.55 0 19.0208 0.195833 19.4125 0.5875C19.8042 0.979167 20 1.45 20 2V6C19.45 6 18.9792 6.19583 18.5875 6.5875C18.1958 6.97917 18 7.45 18 8C18 8.55 18.1958 9.02083 18.5875 9.4125C18.9792 9.80417 19.45 10 20 10V14C20 14.55 19.8042 15.0208 19.4125 15.4125C19.0208 15.8042 18.55 16 18 16H2ZM2 14H18V11.45C17.3667 11.1 16.875 10.6125 16.525 9.9875C16.175 9.3625 16 8.7 16 8C16 7.3 16.175 6.6375 16.525 6.0125C16.875 5.3875 17.3667 4.9 18 4.55V2H2V4.55C2.63333 4.9 3.125 5.3875 3.475 6.0125C3.825 6.6375 4 7.3 4 8C4 8.7 3.825 9.3625 3.475 9.9875C3.125 10.6125 2.63333 11.1 2 11.45V14ZM10 9.9L11.5 11.05C11.7 11.2 11.9042 11.2042 12.1125 11.0625C12.3208 10.9208 12.3833 10.7333 12.3 10.5L11.7 8.6L13.375 7.3C13.5583 7.16667 13.6125 6.98333 13.5375 6.75C13.4625 6.51667 13.3 6.4 13.05 6.4H11.1L10.475 4.475C10.3917 4.24167 10.2333 4.125 10 4.125C9.76667 4.125 9.60833 4.24167 9.525 4.475L8.9 6.4H6.925C6.69167 6.4 6.5375 6.5125 6.4625 6.7375C6.3875 6.9625 6.44167 7.15 6.625 7.3L8.25 8.6L7.65 10.525C7.56667 10.7583 7.625 10.9458 7.825 11.0875C8.025 11.2292 8.225 11.225 8.425 11.075L10 9.9Z"
        fill="#BCBCBC" />
</svg>