<svg width="14" height="14" viewBox="0 0 14 14" fill="none" xmlns="http://www.w3.org/2000/svg">
    <path d="M1.00049 9.99973C0.717155 9.99973 0.479655 9.9039 0.287988 9.71223C0.0963216 9.52056 0.000488281 9.28306 0.000488281 8.99973V4.99973C0.000488281 4.7164 0.0963216 4.4789 0.287988 4.28723C0.479655 4.09556 0.717155 3.99973 1.00049 3.99973H4.00049L7.30049 0.699731C7.61716 0.383064 7.97965 0.312231 8.38799 0.487231C8.79632 0.662231 9.00049 0.974731 9.00049 1.42473V12.5747C9.00049 13.0247 8.79632 13.3372 8.38799 13.5122C7.97965 13.6872 7.61716 13.6164 7.30049 13.2997L4.00049 9.99973H1.00049ZM11.0005 10.9997V2.94973C11.7505 3.29973 12.3547 3.8414 12.813 4.57473C13.2713 5.30806 13.5005 6.1164 13.5005 6.99973C13.5005 7.88306 13.2713 8.68306 12.813 9.39973C12.3547 10.1164 11.7505 10.6497 11.0005 10.9997ZM7.00049 3.84973L4.85049 5.99973H2.00049V7.99973H4.85049L7.00049 10.1497V3.84973Z" 
        fill="#BCBCBC"/>
</svg>