<svg width="12" height="7" viewBox="0 0 12 7" fill="none" xmlns="http://www.w3.org/2000/svg">
<path d="M5.99994 0.050024C5.86661 0.050024 5.74161 0.0710239 5.62494 0.113024C5.50827 0.154357 5.39994 0.225024 5.29994 0.325024L0.67494 4.95002C0.491607 5.13336 0.404274 5.36269 0.41294 5.63802C0.42094 5.91269 0.516607 6.14169 0.69994 6.32502C0.883273 6.50836 1.11661 6.60002 1.39994 6.60002C1.68327 6.60002 1.91661 6.50836 2.09994 6.32502L5.99994 2.42502L9.92494 6.35002C10.1083 6.53336 10.3376 6.62102 10.6129 6.61302C10.8876 6.60436 11.1166 6.50836 11.2999 6.32502C11.4833 6.14169 11.5749 5.90836 11.5749 5.62502C11.5749 5.34169 11.4833 5.10836 11.2999 4.92502L6.69994 0.325024C6.59994 0.225024 6.49161 0.154357 6.37494 0.113024C6.25827 0.0710239 6.13327 0.050024 5.99994 0.050024Z" fill="#BCBCBC"/>
</svg>