<svg width="1440" height="301" viewBox="0 0 1440 301" fill="none" xmlns="http://www.w3.org/2000/svg">
    <rect y="0.222656" width="1440" height="300" rx="4" fill="url(#paint0_linear_0_1)"/>
    <circle cx="295.753" cy="274.104" r="0.608272" fill="#D9D9D9"/>
    <circle cx="259.253" cy="237.608" r="0.608272" fill="#D9D9D9"/>
    <circle cx="210.984" cy="252.332" r="1" fill="#D9D9D9"/>
    <circle cx="64.6105" cy="237.61" r="0.608272" transform="rotate(180 64.6105 237.61)" fill="#D9D9D9"/>
    <circle cx="101.107" cy="274.107" r="0.608272" transform="rotate(180 101.107 274.107)" fill="#D9D9D9"/>
    <circle cx="149.767" cy="249.775" r="0.608272" transform="rotate(180 149.767 249.775)" fill="#D9D9D9"/>
    <circle cx="563.393" cy="274.104" r="0.608272" fill="#D9D9D9"/>
    <circle cx="526.897" cy="237.608" r="0.608272" fill="#D9D9D9" fill-opacity="0.4"/>
    <circle cx="478.233" cy="261.94" r="0.608272" fill="#D9D9D9"/>
    <circle cx="332.247" cy="237.607" r="0.608272" transform="rotate(180 332.247 237.607)" fill="#D9D9D9"/>
    <circle cx="368.352" cy="263.711" r="1" transform="rotate(180 368.352 263.711)" fill="#D9D9D9" fill-opacity="0.5"/>
    <circle cx="416.766" cy="239.129" r="1.25" transform="rotate(180 416.766 239.129)" fill="#D9D9D9"/>
    <circle cx="1156.75" cy="274.104" r="0.608272" fill="#D9D9D9"/>
    <circle cx="1120.25" cy="237.608" r="0.608272" fill="#D9D9D9"/>
    <circle cx="1071.98" cy="252.332" r="1" fill="#D9D9D9"/>
    <circle cx="925.61" cy="237.61" r="0.608272" transform="rotate(180 925.61 237.61)" fill="#D9D9D9"/>
    <circle cx="962.107" cy="274.107" r="0.608272" transform="rotate(180 962.107 274.107)" fill="#D9D9D9"/>
    <circle cx="1010.77" cy="249.775" r="0.608272" transform="rotate(180 1010.77 249.775)" fill="#D9D9D9"/>
    <circle cx="1424.39" cy="274.104" r="0.608272" fill="#D9D9D9"/>
    <circle cx="1387.9" cy="237.608" r="0.608272" fill="#D9D9D9" fill-opacity="0.4"/>
    <circle cx="1339.23" cy="261.94" r="0.608272" fill="#D9D9D9"/>
    <circle cx="1193.25" cy="237.607" r="0.608272" transform="rotate(180 1193.25 237.607)" fill="#D9D9D9"/>
    <circle cx="1229.35" cy="263.711" r="1" transform="rotate(180 1229.35 263.711)" fill="#D9D9D9" fill-opacity="0.5"/>
    <circle cx="1277.77" cy="239.129" r="1.25" transform="rotate(180 1277.77 239.129)" fill="#D9D9D9"/>
    <defs>
    <linearGradient id="paint0_linear_0_1" x1="720" y1="0.222656" x2="720" y2="300.223" gradientUnits="userSpaceOnUse">
    <stop stop-color="#0A0A0A"/>
    <stop offset="1" stop-color="#131422"/>
    </linearGradient>
    </defs>
</svg>