<svg class='mr-[4px]' width="10" height="10" viewBox="0 0 10 10" fill="none" xmlns="http://www.w3.org/2000/svg">
    <path d="M5.00004 9.66665C4.81115 9.66665 4.65282 9.60276 4.52504 9.47498C4.39726 9.3472 4.33337 9.18887 4.33337 8.99998V5.66665H1.00004C0.811152 5.66665 0.652818 5.60276 0.525041 5.47498C0.397263 5.3472 0.333374 5.18887 0.333374 4.99998C0.333374 4.81109 0.397263 4.65276 0.525041 4.52498C0.652818 4.3972 0.811152 4.33331 1.00004 4.33331H4.33337V0.99998C4.33337 0.811091 4.39726 0.652757 4.52504 0.52498C4.65282 0.397202 4.81115 0.333313 5.00004 0.333313C5.18893 0.333313 5.34726 0.397202 5.47504 0.52498C5.60282 0.652757 5.66671 0.811091 5.66671 0.99998V4.33331H9.00004C9.18893 4.33331 9.34726 4.3972 9.47504 4.52498C9.60282 4.65276 9.66671 4.81109 9.66671 4.99998C9.66671 5.18887 9.60282 5.3472 9.47504 5.47498C9.34726 5.60276 9.18893 5.66665 9.00004 5.66665H5.66671V8.99998C5.66671 9.18887 5.60282 9.3472 5.47504 9.47498C5.34726 9.60276 5.18893 9.66665 5.00004 9.66665Z" fill="#BCBCBC"/>
</svg>