<svg width="12" height="8" viewBox="0 0 12 8" fill="none" xmlns="http://www.w3.org/2000/svg">
    <path d="M11.0167 1.4523C10.8906 0.97905 10.5191 0.606382 10.0472 0.479904C9.19211 0.250044 5.76306 0.250044 5.76306 0.250044C5.76306 0.250044 2.33403 0.250044 1.47888 0.479904C1.00709 0.606382 0.635506 0.97905 0.509412 1.4523C0.280273 2.31004 0.280273 4.09966 0.280273 4.09966C0.280273 4.09966 0.280273 5.88926 0.509412 6.74708C0.635506 7.22027 1.00709 7.59294 1.47888 7.71947C2.33403 7.94928 5.76306 7.94928 5.76306 7.94928C5.76306 7.94928 9.19211 7.94928 10.0472 7.71947C10.5191 7.59294 10.8906 7.22027 11.0167 6.74708C11.2458 5.88926 11.2458 4.09966 11.2458 4.09966C11.2458 4.09966 11.2458 2.31004 11.0167 1.4523Z" fill="#ED1D24"/>
    <path d="M4.6416 5.72461L7.50761 4.09985L4.6416 2.47494V5.72461Z" fill="white"/>
</svg>