<svg width="13" height="6" viewBox="0 0 13 6" fill="none" xmlns="http://www.w3.org/2000/svg">
    <path d="M11.4537 5.69349H7.55969L7.54701 5.69248C7.47243 5.68487 7.40561 5.65096 7.35749 5.59968C7.30945 5.5485 7.27972 5.4803 7.27871 5.4036L7.2782 5.40208V0.944279L7.27871 0.942756C7.27967 0.873095 7.29425 0.817796 7.33495 0.766243C7.37078 0.720878 7.42138 0.68769 7.49656 0.658661C7.64325 0.60181 7.79951 0.556848 7.9614 0.526563C8.11824 0.497217 8.27964 0.481323 8.442 0.481323C9.11953 0.481323 9.73664 0.740403 10.2005 1.16488C10.6297 1.5576 10.9271 2.09219 11.0193 2.69423C11.0624 2.6816 11.1065 2.67071 11.1515 2.66168C11.251 2.64173 11.3521 2.63115 11.4537 2.63115C11.8769 2.63115 12.2604 2.80309 12.5383 3.08108C12.8159 3.35873 12.9875 3.74213 12.9875 4.16549C12.9875 4.58867 12.816 4.97026 12.5387 5.24642C12.2609 5.52306 11.8772 5.69349 11.4537 5.69349Z" fill="#F7780F"/>
    <path fill-rule="evenodd" clip-rule="evenodd" d="M6.98726 5.46152V5.46015C6.98656 5.54704 6.94582 5.6177 6.89626 5.6177C6.84643 5.6177 6.80569 5.54704 6.805 5.46083L6.78637 4.88038L6.76782 4.2844L6.805 1.05739V1.04117C6.8053 0.992058 6.81848 0.948264 6.83899 0.918594C6.85455 0.89651 6.87467 0.882935 6.89626 0.882935C6.91332 0.882935 6.92917 0.89104 6.94276 0.905162C6.96872 0.933406 6.98687 0.983254 6.98765 1.04048L7.02799 4.2844L6.98726 5.46152Z" fill="#F7780F"/>
    <path fill-rule="evenodd" clip-rule="evenodd" d="M6.34064 5.3588L6.33718 5.47671C6.33679 5.51776 6.32676 5.55485 6.31162 5.58173C6.29614 5.60812 6.27485 5.62483 6.25207 5.62483C6.22569 5.62483 6.20252 5.60396 6.18663 5.57102C6.17495 5.54674 6.16763 5.5157 6.16683 5.48276C6.16652 5.4814 6.16652 5.4793 6.16652 5.47745C6.16652 5.47745 6.13391 4.2841 6.13391 4.28205L6.16613 1.33792L6.16652 1.30963C6.16683 1.25773 6.18237 1.21204 6.20597 1.18569C6.21914 1.17016 6.23462 1.16156 6.25207 1.16156C6.26909 1.16156 6.28535 1.17084 6.29884 1.18707C6.32174 1.21326 6.33679 1.25842 6.33718 1.30963L6.37318 4.2834L6.34064 5.35879L6.34064 5.3588Z" fill="#F7780F"/>
    <path fill-rule="evenodd" clip-rule="evenodd" d="M5.83787 5.48566V5.48498C5.83717 5.56238 5.80188 5.62239 5.75817 5.62239C5.71437 5.62239 5.67959 5.56238 5.67839 5.48566L5.64282 4.28289L5.67839 1.78459C5.67959 1.70718 5.71437 1.64648 5.75817 1.64648C5.80188 1.64648 5.83717 1.70718 5.83787 1.78459L5.87779 4.28357L5.83787 5.48566Z" fill="#F7780F"/>
    <path fill-rule="evenodd" clip-rule="evenodd" d="M5.34238 5.49309V5.49241C5.34121 5.56376 5.30909 5.62035 5.26844 5.62035C5.22822 5.62035 5.19571 5.5638 5.19493 5.4931L5.15576 4.28288L5.19453 1.68959C5.19571 1.61751 5.22822 1.56165 5.26844 1.56165C5.30909 1.56165 5.3412 1.61751 5.34238 1.68959L5.38649 4.28288L5.34238 5.49309Z" fill="#F7780F"/>
    <path fill-rule="evenodd" clip-rule="evenodd" d="M4.85101 5.50371C4.8498 5.56974 4.81968 5.62164 4.78282 5.62164C4.74575 5.62164 4.71591 5.56974 4.71473 5.50441L4.67212 4.28281L4.71473 1.62158C4.71591 1.55557 4.74575 1.50366 4.78282 1.50366C4.81968 1.50366 4.8498 1.55557 4.85101 1.62158L4.89857 4.28281L4.85101 5.50371Z" fill="#F7780F"/>
    <path fill-rule="evenodd" clip-rule="evenodd" d="M4.36274 5.51189V5.51121C4.36156 5.57184 4.33408 5.61891 4.3004 5.61891C4.26669 5.61891 4.23924 5.57184 4.23806 5.51189L4.19238 4.28287C4.19238 4.28287 4.23806 1.70834 4.23806 1.70784C4.23924 1.64785 4.26669 1.6001 4.3004 1.6001C4.33408 1.6001 4.36153 1.64785 4.36274 1.70784L4.41457 4.28287L4.36274 5.51189Z" fill="#F7780F"/>
    <path fill-rule="evenodd" clip-rule="evenodd" d="M3.87149 5.5314V5.53072C3.86992 5.58536 3.84514 5.62845 3.81452 5.62845C3.78441 5.62845 3.75963 5.58536 3.75803 5.53072L3.70886 4.289L3.75803 1.91253C3.75963 1.85804 3.78441 1.81494 3.81452 1.81494C3.84514 1.81494 3.86992 1.85804 3.87149 1.91253L3.9272 4.289L3.87149 5.5314Z" fill="#F7780F"/>
    <path fill-rule="evenodd" clip-rule="evenodd" d="M3.39817 5.53191V5.53122C3.3966 5.58039 3.37421 5.61954 3.34704 5.61954C3.31999 5.61948 3.29748 5.58039 3.29599 5.53191L3.24377 4.28208L3.29599 2.34799C3.29748 2.29883 3.31999 2.25989 3.34704 2.25989C3.37421 2.25989 3.3966 2.29883 3.39817 2.34746L3.45744 4.28208L3.39817 5.53191Z" fill="#F7780F"/>
    <path fill-rule="evenodd" clip-rule="evenodd" d="M2.92131 5.53154C2.91982 5.57601 2.90001 5.60894 2.87642 5.60894C2.85202 5.60894 2.83273 5.57601 2.83113 5.53154L2.77502 4.28172L2.83113 3.09321C2.83273 3.04873 2.85202 3.01581 2.87642 3.01581C2.90041 3.01581 2.91982 3.04873 2.92131 3.09252L2.98485 4.28171L2.92131 5.53154Z" fill="#F7780F"/>
    <path fill-rule="evenodd" clip-rule="evenodd" d="M2.44881 5.52115C2.44685 5.55942 2.4298 5.58839 2.40928 5.58839C2.38836 5.58835 2.37131 5.55942 2.36942 5.52115L2.31018 4.28129L2.36942 2.99988C2.37131 2.96142 2.38836 2.9325 2.40928 2.9325C2.4298 2.9325 2.44685 2.96142 2.44881 2.99988L2.51609 4.28129L2.44881 5.52115Z" fill="#F7780F"/>
    <path fill-rule="evenodd" clip-rule="evenodd" d="M1.97937 5.48285C1.97737 5.51647 1.96302 5.54008 1.94566 5.54008C1.92782 5.54008 1.91386 5.51647 1.91198 5.48285L1.84924 4.28146L1.91198 3.03436C1.91347 3.00074 1.92782 2.97644 1.94566 2.97644C1.96302 2.97644 1.97737 3.00074 1.97937 3.03436L2.05053 4.28146L1.97937 5.48285Z" fill="#F7780F"/>
    <path fill-rule="evenodd" clip-rule="evenodd" d="M1.51424 5.3091C1.51185 5.33666 1.50025 5.35636 1.48598 5.35636C1.47202 5.35636 1.46002 5.33666 1.45803 5.3091L1.39185 4.28079L1.45803 3.2297C1.46002 3.20262 1.47202 3.18243 1.48598 3.18243C1.50025 3.18243 1.51185 3.20213 1.51424 3.2297L1.58936 4.28079L1.51424 5.3091Z" fill="#F7780F"/>
    <path fill-rule="evenodd" clip-rule="evenodd" d="M1.08013 4.92032C1.07786 4.94671 1.06707 4.96551 1.05307 4.96551C1.03911 4.96551 1.0283 4.94671 1.02633 4.91963L0.977173 4.28059L1.02633 3.63085C1.0283 3.60393 1.03911 3.58496 1.05307 3.58496C1.06707 3.58496 1.07786 3.60393 1.08013 3.63085L1.13862 4.28128L1.08013 4.92032Z" fill="#F7780F"/>
</svg>