<svg width="20" height="20" viewBox="0 0 20 20" fill="none" xmlns="http://www.w3.org/2000/svg">
<path d="M14.0669 2.40014C13.9701 2.30314 13.8552 2.22617 13.7286 2.17366C13.6021 2.12115 13.4664 2.09412 13.3294 2.09412C13.1924 2.09412 13.0567 2.12115 12.9301 2.17366C12.8036 2.22617 12.6886 2.30314 12.5919 2.40014L5.58355 9.40848C5.50629 9.48557 5.445 9.57715 5.40319 9.67796C5.36137 9.77877 5.33984 9.88684 5.33984 9.99598C5.33984 10.1051 5.36137 10.2132 5.40319 10.314C5.445 10.4148 5.50629 10.5064 5.58355 10.5835L12.5919 17.5918C13.0002 18.0001 13.6585 18.0001 14.0669 17.5918C14.4752 17.1835 14.4752 16.5251 14.0669 16.1168L7.95021 10.0001L14.0752 3.87514C14.4752 3.46681 14.4752 2.80848 14.0669 2.40014Z" fill="#FAFAFA"/>
</svg>
