<svg width="18" height="19" viewBox="0 0 18 19" fill="none" xmlns="http://www.w3.org/2000/svg">
<circle cx="9" cy="9.5" r="9" fill="#340BB8"/>
<path d="M9.02344 13.6172C7.33594 13.6172 6.12305 12.7148 6.07031 11.3672H7.13672C7.19531 12.1758 7.99805 12.6797 9.01172 12.6797C10.1309 12.6797 10.9395 12.0762 10.9453 11.1914C10.9395 10.2656 10.2012 9.61523 8.88281 9.60938H8.19141V8.68359H8.88281C9.91406 8.68359 10.6348 8.10352 10.6289 7.23047C10.6348 6.38086 10.0137 5.81836 9.04688 5.8125C8.13867 5.81836 7.3125 6.31641 7.26562 7.14844H6.24609C6.29883 5.80078 7.55273 4.89844 9.05859 4.89844C10.6758 4.89844 11.6602 5.95898 11.6484 7.17188C11.6602 8.13867 11.0977 8.8418 10.207 9.09375V9.15234C11.3145 9.32227 11.9824 10.1133 11.9766 11.1914C11.9824 12.5859 10.7168 13.6172 9.02344 13.6172Z" fill="white"/>
</svg>