<svg width="20" height="20" viewBox="0 0 20 20" fill="none" xmlns="http://www.w3.org/2000/svg">
<path d="M13.2331 7.74165L9.99979 10.975L6.76645 7.74165C6.6893 7.6645 6.59771 7.6033 6.49691 7.56154C6.3961 7.51979 6.28806 7.4983 6.17895 7.4983C6.06984 7.4983 5.9618 7.51979 5.861 7.56154C5.7602 7.6033 5.6686 7.6645 5.59145 7.74165C5.5143 7.8188 5.4531 7.91039 5.41135 8.0112C5.36959 8.112 5.3481 8.22004 5.3481 8.32915C5.3481 8.43826 5.36959 8.5463 5.41135 8.6471C5.4531 8.7479 5.5143 8.8395 5.59145 8.91665L9.41645 12.7416C9.49355 12.8189 9.58512 12.8802 9.68593 12.922C9.78674 12.9638 9.89481 12.9854 10.004 12.9854C10.1131 12.9854 10.2212 12.9638 10.322 12.922C10.4228 12.8802 10.5144 12.8189 10.5915 12.7416L14.4165 8.91665C14.4937 8.83955 14.555 8.74798 14.5968 8.64717C14.6386 8.54636 14.6602 8.43829 14.6602 8.32915C14.6602 8.22001 14.6386 8.11194 14.5968 8.01113C14.555 7.91032 14.4937 7.81874 14.4165 7.74165C14.0915 7.42498 13.5581 7.41665 13.2331 7.74165Z" fill="white"/>
</svg>
