<svg width="20" height="20" viewBox="0 0 20 20" fill="none" xmlns="http://www.w3.org/2000/svg">
<path d="M6.76688 12.2584L10.0002 9.02502L13.2335 12.2584C13.3107 12.3355 13.4023 12.3967 13.5031 12.4385C13.6039 12.4802 13.7119 12.5017 13.821 12.5017C13.9302 12.5017 14.0382 12.4802 14.139 12.4385C14.2398 12.3967 14.3314 12.3355 14.4085 12.2584C14.4857 12.1812 14.5469 12.0896 14.5887 11.9888C14.6304 11.888 14.6519 11.78 14.6519 11.6709C14.6519 11.5617 14.6304 11.4537 14.5887 11.3529C14.5469 11.2521 14.4857 11.1605 14.4085 11.0834L10.5835 7.25835C10.5065 7.1811 10.4149 7.11981 10.3141 7.07799C10.2133 7.03617 10.1052 7.01465 9.99605 7.01465C9.88691 7.01465 9.77884 7.03617 9.67803 7.07799C9.57722 7.11981 9.48564 7.1811 9.40855 7.25835L5.58355 11.0834C5.50629 11.1604 5.445 11.252 5.40319 11.3528C5.36137 11.4536 5.33984 11.5617 5.33984 11.6709C5.33984 11.78 5.36137 11.8881 5.40319 11.9889C5.445 12.0897 5.50629 12.1813 5.58355 12.2584C5.90855 12.575 6.44188 12.5834 6.76688 12.2584Z" fill="white"/>
</svg>
