<svg width="37" height="36" viewBox="0 0 37 36" fill="none" xmlns="http://www.w3.org/2000/svg">
    <path d="M33.5834 35.8333L28.0834 30.3333H6.16671C5.25004 30.3333 4.46532 30.0069 3.81254 29.3541C3.15976 28.7013 2.83337 27.9166 2.83337 26.9999V6.99992C2.83337 6.08325 3.15976 5.29853 3.81254 4.64575C4.46532 3.99297 5.25004 3.66659 6.16671 3.66659V8.41659L0.583374 2.83325L2.95837 0.458252L35.9584 33.4583L33.5834 35.8333ZM6.16671 26.9999H24.75L8.08337 10.3333H6.16671V26.9999ZM35.7917 28.5416L32.8334 25.5833V10.3333H17.5834L10.9167 3.66659H32.8334C33.75 3.66659 34.5348 3.99297 35.1875 4.64575C35.8403 5.29853 36.1667 6.08325 36.1667 6.99992V26.9999C36.1667 27.2777 36.1389 27.5485 36.0834 27.8124C36.0278 28.0763 35.9306 28.3194 35.7917 28.5416Z" fill="#727272"/>
</svg>