<svg width="21" height="21" viewBox="0 0 21 21" fill="none" xmlns="http://www.w3.org/2000/svg">
    <path d="M18.6094 1.98432C18.1992 1.57417 17.6428 1.34375 17.0627 1.34375C16.4826 1.34375 15.9263 1.57417 15.516 1.98432L14.5519 2.94849L17.6452 6.04183L18.6094 5.07766C19.0195 4.66743 19.25 4.11109 19.25 3.53099C19.25 2.95089 19.0195 2.39455 18.6094 1.98432ZM16.761 6.92599L13.6677 3.83266L3.54271 13.9577C3.02842 14.4717 2.65036 15.1058 2.44271 15.8027L1.77605 18.0402C1.74386 18.1481 1.74146 18.2628 1.7691 18.372C1.79674 18.4813 1.85339 18.581 1.93306 18.6606C2.01273 18.7403 2.11245 18.797 2.22168 18.8246C2.3309 18.8522 2.44557 18.8498 2.55355 18.8177L4.79105 18.151C5.4879 17.9433 6.12201 17.5653 6.63605 17.051L16.761 6.92599Z" fill="white"/>
</svg>