<svg width="20" height="20" viewBox="0 0 20 20" fill="none" xmlns="http://www.w3.org/2000/svg">
    <path d="M10.0018 2.28516L11.7852 3.31849H13.8518L14.8852 5.11849L16.6852 6.15182V8.21849L17.7185 10.0018L16.6852 11.7852V13.8518L14.8852 14.8852L13.8518 16.6852H11.7852L10.0018 17.7185L8.21849 16.6852H6.15182L5.11849 14.8852L3.31849 13.8518V11.7852L2.28516 10.0018L3.31849 8.21849V6.15182L5.11849 5.11849L6.15182 3.31849H8.21849L10.0018 2.28516Z" fill="#340BB8"/>
    <path d="M10.0016 15.6516C6.8849 15.6516 4.35156 13.1182 4.35156 10.0016C4.35156 6.8849 6.8849 4.35156 10.0016 4.35156C13.1182 4.35156 15.6516 6.8849 15.6516 10.0016C15.6516 13.1182 13.1182 15.6516 10.0016 15.6516ZM10.0016 4.8349C7.15156 4.8349 4.8349 7.15156 4.8349 10.0016C4.8349 12.8516 7.15156 15.1682 10.0016 15.1682C12.8516 15.1682 15.1682 12.8516 15.1682 10.0016C15.1682 7.15156 12.8516 4.8349 10.0016 4.8349Z" fill="white" fill-opacity="0.5"/>
    <path d="M8 13.5V7H9.94508C10.4607 7 10.868 7.10333 11.167 7.31C11.4661 7.51333 11.6796 7.775 11.8078 8.095C11.9359 8.41167 12 8.74167 12 9.085C12 9.325 11.9619 9.56833 11.8856 9.815C11.8124 10.0583 11.6934 10.2817 11.5286 10.485C11.3669 10.6883 11.1548 10.8533 10.8924 10.98C10.6331 11.1033 10.3173 11.165 9.94508 11.165H8.75515L8.75515 13.5H8ZM8.75515 10.415H10C10.3112 10.415 10.5584 10.3483 10.7414 10.215C10.9275 10.0817 11.0603 9.91333 11.1396 9.71C11.222 9.50333 11.2632 9.295 11.2632 9.085C11.2632 8.895 11.2265 8.69667 11.1533 8.49C11.0831 8.28333 10.9565 8.10833 10.7735 7.965C10.5904 7.82167 10.3326 7.75 10 7.75H8.75515V10.415Z" fill="white"/>
</svg>