<svg width="20" height="21" viewBox="0 0 20 21" fill="none" xmlns="http://www.w3.org/2000/svg">
<path d="M9.925 1.20002C11.6136 1.18216 13.2796 1.58958 14.7694 2.38473C16.2592 3.17988 17.525 4.33719 18.45 5.75002V2.43752H20V6.75003C19.9967 7.13026 19.8442 7.494 19.5754 7.76288C19.3065 8.03176 18.9427 8.18426 18.5625 8.18753H14.2625V6.62503H17.1625C16.3824 5.41969 15.3092 4.43196 14.0434 3.75426C12.7777 3.07656 11.3607 2.73104 9.925 2.75002C7.78892 2.67552 5.70997 3.44832 4.14121 4.9C2.57245 6.35169 1.64106 8.36459 1.55 10.5C1.64106 12.6355 2.57245 14.6484 4.14121 16.1C5.70997 17.5517 7.78892 18.3245 9.925 18.25C12.0611 18.3245 14.14 17.5517 15.7088 16.1C17.2775 14.6484 18.2089 12.6355 18.3 10.5H19.85C19.7619 13.0476 18.6681 15.4566 16.808 17.1996C14.9478 18.9425 12.4729 19.8776 9.925 19.8C7.37705 19.8776 4.90215 18.9425 3.04203 17.1996C1.18191 15.4566 0.0880887 13.0476 0 10.5C0.0880887 7.95242 1.18191 5.54348 3.04203 3.80049C4.90215 2.0575 7.37705 1.12246 9.925 1.20002Z" fill="white"/>
</svg>
