<svg width="24" height="24" viewBox="0 0 24 24" fill="none" xmlns="http://www.w3.org/2000/svg">
    <mask id="mask0_30_2045" style="mask-type:alpha" maskUnits="userSpaceOnUse" x="0" y="0" width="24" height="24">
    <rect width="24" height="24" fill="#D9D9D9"/>
    </mask>
    <g mask="url(#mask0_30_2045)">
    <path d="M6.7 19.3L8.6 22.5L12 21.05L15.4 22.5L17.3 19.3L20.9 18.5L20.55 14.8L23 12L20.55 9.2L20.9 5.5L17.3 4.7L15.4 1.5L12 2.95L8.6 1.5L6.7 4.7L3.1 5.5L3.45 9.2L1 12L3.45 14.8L3.1 18.5L6.7 19.3Z" fill="#734BF2"/>
    <mask id="mask1_30_2045" style="mask-type:alpha" maskUnits="userSpaceOnUse" x="3" y="2" width="19" height="19">
    <rect x="3.33203" y="2.99976" width="18" height="18" fill="#D9D9D9"/>
    </mask>
    <g mask="url(#mask1_30_2045)">
    <path d="M10.832 15.3L7.83203 12.3L8.88203 11.25L10.832 13.2L15.782 8.25L16.832 9.3L10.832 15.3Z" fill="white"/>
    </g>
    </g>
</svg>