<svg width="22" height="22" viewBox="0 0 22 22" fill="none" xmlns="http://www.w3.org/2000/svg">
<path d="M5.7 18.2999L7.6 21.4999L11 20.0499L14.4 21.4999L16.3 18.2999L19.9 17.4999L19.55 13.7999L22 10.9999L19.55 8.19988L19.9 4.49988L16.3 3.69988L14.4 0.499878L11 1.94988L7.6 0.499878L5.7 3.69988L2.1 4.49988L2.45 8.19988L0 10.9999L2.45 13.7999L2.1 17.4999L5.7 18.2999Z" fill="#734BF2"/>
<mask id="mask0_635_11057" style="mask-type:alpha" maskUnits="userSpaceOnUse" x="2" y="1" width="19" height="19">
<rect x="2.33008" y="1.99988" width="18" height="18" fill="#D9D9D9"/>
</mask>
<g mask="url(#mask0_635_11057)">
<path d="M9.83008 14.3L6.83008 11.3L7.88008 10.25L9.83008 12.2L14.7801 7.25L15.8301 8.3L9.83008 14.3Z" fill="white"/>
</g>
</svg>
