<svg width="16" height="17" viewBox="0 0 16 17" fill="none" xmlns="http://www.w3.org/2000/svg">
<mask id="mask0_208_59609" style="mask-type:alpha" maskUnits="userSpaceOnUse" x="0" y="0" width="16" height="17">
<rect y="0.5" width="16" height="16" fill="#D9D9D9"/>
</mask>
<g mask="url(#mask0_208_59609)">
<path d="M2.66667 12.5C2.47778 12.5 2.31933 12.436 2.19133 12.308C2.06378 12.1804 2 12.0222 2 11.8333V11.4333C2 10.7111 2.36956 10.1249 3.10867 9.67467C3.84733 9.22489 4.81111 9 6 9C7.2 9 8.16667 9.22489 8.9 9.67467C9.63333 10.1249 10 10.7111 10 11.4333V11.8333C10 12.0222 9.936 12.1804 9.808 12.308C9.68044 12.436 9.52222 12.5 9.33333 12.5H2.66667ZM11 12.5V11.4333C11 11.1444 10.9611 10.8722 10.8833 10.6167C10.8056 10.3611 10.6944 10.1222 10.55 9.9C10.6722 9.87778 10.7973 9.86111 10.9253 9.85C11.0529 9.83889 11.1889 9.83333 11.3333 9.83333C12.1333 9.83333 12.7778 9.98044 13.2667 10.2747C13.7556 10.5693 14 10.9611 14 11.45V11.8333C14 12.0222 13.936 12.1804 13.808 12.308C13.6804 12.436 13.5222 12.5 13.3333 12.5H11ZM11.3333 9.16667C10.9667 9.16667 10.6527 9.036 10.3913 8.77467C10.1304 8.51378 10 8.2 10 7.83333C10 7.46667 10.1304 7.15267 10.3913 6.89133C10.6527 6.63044 10.9667 6.5 11.3333 6.5C11.7 6.5 12.014 6.63044 12.2753 6.89133C12.5362 7.15267 12.6667 7.46667 12.6667 7.83333C12.6667 8.2 12.5362 8.51378 12.2753 8.77467C12.014 9.036 11.7 9.16667 11.3333 9.16667ZM6 8.5C5.44444 8.5 4.97222 8.30556 4.58333 7.91667C4.19444 7.52778 4 7.05556 4 6.5C4 5.94444 4.19444 5.47222 4.58333 5.08333C4.97222 4.69444 5.44444 4.5 6 4.5C6.55556 4.5 7.02778 4.69444 7.41667 5.08333C7.80556 5.47222 8 5.94444 8 6.5C8 7.05556 7.80556 7.52778 7.41667 7.91667C7.02778 8.30556 6.55556 8.5 6 8.5Z" fill="#A3A3A3"/>
</g>
</svg>
