<svg width="24" height="24" viewBox="0 0 24 24" fill="none" xmlns="http://www.w3.org/2000/svg">
    <circle cx="12" cy="12" r="10.9565" fill="#8C6BF7" stroke="#6A4DCA" stroke-width="2.08696"/>
    <path d="M6.75647 17.4284C6.75647 17.1402 6.99006 16.9067 7.27821 16.9067H16.6599C16.948 16.9067 17.1816 17.1402 17.1816 17.4284V18.2603C17.1816 18.5484 16.948 18.782 16.6599 18.782H7.27821C6.99006 18.782 6.75647 18.5484 6.75647 18.2603V17.4284ZM18.4545 8.40492C17.785 8.40492 17.2422 8.96467 17.2422 9.65516C17.2422 9.67651 17.2428 9.69772 17.2438 9.71879C17.2579 10.0017 17.1675 10.3119 16.9152 10.4407L15.2957 11.2673C15.0479 11.3938 14.7445 11.3036 14.606 11.0623L12.8383 7.98192C12.6978 7.73695 12.7905 7.42785 12.9526 7.19659C13.0964 6.99146 13.1813 6.73964 13.1813 6.46704C13.1813 5.77655 12.6385 5.2168 11.9691 5.2168C11.2996 5.2168 10.7568 5.77655 10.7568 6.46704C10.7568 6.73964 10.8417 6.99146 10.9855 7.19659C11.1477 7.42785 11.2403 7.73695 11.0998 7.98192L9.3422 11.0447C9.20352 11.2864 8.89943 11.3765 8.65152 11.2493L7.08199 10.4441C6.82991 10.3147 6.74012 10.0043 6.75476 9.72135C6.75589 9.69944 6.75647 9.67737 6.75647 9.65516C6.75647 8.96467 6.21374 8.40492 5.54425 8.40492C4.87476 8.40492 4.33203 8.96473 4.33203 9.65522C4.33203 10.3457 4.87476 10.9055 5.54425 10.9055C5.67467 10.9055 5.79963 10.9861 5.82421 11.1141L6.6146 15.2329C6.66176 15.4787 6.87676 15.6564 7.12699 15.6564H16.8153C17.0636 15.6564 17.2775 15.4813 17.3267 15.2379L18.1578 11.1234C18.185 10.989 18.3173 10.9054 18.4544 10.9054C19.1239 10.9054 19.6666 10.3456 19.6666 9.65516C19.6667 8.96473 19.124 8.40492 18.4545 8.40492Z" fill="black" fill-opacity="0.3"/>
    <path d="M13.1793 8V16.8469H11.2372V9.74738H11.1858L9.05078 11.0182V9.39302L11.353 8H13.1793Z" fill="#D9D9D9"/>
</svg>