<svg width="164" height="48" viewBox="0 0 164 48" fill="none" xmlns="http://www.w3.org/2000/svg">
    <rect width="163.5" height="48" fill="#3B3B3B"/>
    <mask id="mask0_2838_51079" style="mask-type:alpha" maskUnits="userSpaceOnUse" x="58" y="16" width="17" height="16">
    <rect x="58.25" y="16" width="16" height="16" fill="#D9D9D9"/>
    </mask>
    <g mask="url(#mask0_2838_51079)">
    <path d="M67.5844 28L63.5844 24L67.5844 20L68.5177 20.9333L65.451 24L68.5177 27.0667L67.5844 28Z" fill="#727272"/>
    </g>
    <path d="M87.4141 18.4492V29.0547H86.1016V18.4492H87.4141ZM78.9414 22.9609C78.9355 20.6758 80.1016 19.2227 81.707 19.2227C83.2949 19.2227 84.4668 20.6758 84.4727 22.9609C84.4668 25.2637 83.2949 26.7109 81.707 26.7109C80.1016 26.7109 78.9355 25.2637 78.9414 22.9609ZM80.1953 22.9609C80.1953 24.5898 80.8105 25.5332 81.707 25.5391C82.5977 25.5332 83.207 24.5898 83.207 22.9609C83.207 21.3438 82.5977 20.3945 81.707 20.3945C80.8105 20.3945 80.1953 21.3438 80.1953 22.9609ZM97.8438 18.4609V26.1953H96.543V22.3164H94.668V21.2617H96.543V18.4609H97.8438ZM88.9492 23.9102C90.6367 23.3535 91.5391 21.9707 91.5391 20.5586V20.2773H89.3359V19.2227H95.0547V20.2773H92.8633V20.5703C92.8633 21.8418 93.7188 23.1602 95.3594 23.6992L94.7031 24.7422C93.5195 24.3379 92.6816 23.5293 92.2188 22.5273C91.7559 23.6406 90.8711 24.5312 89.6172 24.9648L88.9492 23.9102ZM90.8945 28.832V25.5156H92.1953V27.7773H98.1133V28.832H90.8945Z" fill="#727272"/>
</svg>