<svg width="164" height="48" viewBox="0 0 164 48" fill="none" xmlns="http://www.w3.org/2000/svg">
    <rect width="163.5" height="48" transform="translate(0.5)" fill="#3B3B3B"/>
    <path d="M73.3984 18.4492V22.4688H75.0273V23.5352H73.3984V29.0547H72.0977V18.4492H73.3984ZM65.5352 26.4648V19.457H70.4922V20.5117H66.8359V25.375C68.4824 25.3691 69.7891 25.2871 71.2422 25.0352L71.3945 26.1367C69.748 26.418 68.3242 26.4648 66.4141 26.4648H65.5352ZM80.2891 18.6602C82.6328 18.6602 84.1035 19.4277 84.1094 20.7227C84.1035 21.9883 82.6328 22.7441 80.2891 22.7383C77.9688 22.7441 76.4688 21.9883 76.4688 20.7227C76.4688 19.4277 77.9688 18.6602 80.2891 18.6602ZM75.4727 24.5078V23.4531H85.1289V24.5078H75.4727ZM76.6094 28.9141V25.3516H83.957V28.9141H76.6094ZM77.8281 20.7227C77.8164 21.3613 78.7422 21.7246 80.2891 21.7305C81.8359 21.7246 82.7617 21.3613 82.7617 20.7227C82.7617 20.0488 81.8359 19.6797 80.2891 19.6797C78.7422 19.6797 77.8164 20.0488 77.8281 20.7227ZM77.8984 27.8594H82.6914V26.3828H77.8984V27.8594Z" fill="#727272"/>
    <mask id="mask0_2838_51241" style="mask-type:alpha" maskUnits="userSpaceOnUse" x="89" y="16" width="17" height="16">
    <rect width="16" height="16" transform="matrix(-1 0 0 1 105.75 16)" fill="#727272"/>
    </mask>
    <g mask="url(#mask0_2838_51241)">
    <path d="M96.4156 28L100.416 24L96.4156 20L95.4823 20.9333L98.549 24L95.4823 27.0667L96.4156 28Z" fill="#727272"/>
    </g>
</svg>