<svg width="22" height="44" viewBox="0 0 22 44" fill="none" xmlns="http://www.w3.org/2000/svg">
<path d="M9.47856 0.318176C10.038 0.597897 10.2058 0.989505 10.0939 1.60489C9.81422 3.84265 9.75828 6.02447 10.3177 8.20629C10.7093 9.82866 11.4925 11.1713 12.4995 12.4021C13.8422 14.0245 15.2967 15.535 16.6953 17.1573C19.1009 20.0105 20.7792 23.2552 21.4506 26.8916C22.1778 30.8077 21.6744 34.5 19.5485 37.9126C17.7023 40.7657 15.1848 42.6678 11.8282 43.507C11.045 43.6748 10.5415 43.1713 10.6534 42.3322C10.8772 40.7657 11.1569 39.2552 11.2688 37.6888C11.4366 35.2832 10.7093 33.0454 9.42262 30.9755C8.02402 28.7937 6.3457 26.8357 4.66738 24.8776C2.54151 22.3601 1.03102 19.507 0.359689 16.2622C-0.199751 13.465 -0.143807 10.6678 0.919129 7.98251C2.31773 4.34615 4.89115 1.71678 8.69534 0.430064C8.80723 0.37412 8.91912 0.318176 8.97506 0.318176C9.1429 0.318176 9.31073 0.318176 9.47856 0.318176Z" fill="white"/>
</svg>
