<svg version="1.1" id="Layer_1" xmlns="http://www.w3.org/2000/svg" xmlns:xlink="http://www.w3.org/1999/xlink" x="0px" y="0px"
	 width="100%" viewBox="0 0 603 112" enable-background="new 0 0 603 112" xml:space="preserve">
<path fill="#3DABC5" opacity="1.000000" stroke="none" 
	d="
M95.000000,1.000000 
	C117.354225,1.000000 139.708450,1.000000 162.190308,1.217937 
	C166.163742,5.743656 169.983734,10.074862 173.861755,14.353471 
	C179.058441,20.086969 184.780533,25.597023 181.339081,34.716782 
	C169.141159,34.716782 156.756516,34.716782 143.849731,34.716782 
	C143.849731,31.048187 143.849731,27.650200 143.849731,24.384727 
	C132.938507,24.384727 122.554535,24.384727 112.246933,24.384727 
	C112.246933,46.361580 112.246933,67.952820 112.246933,89.706108 
	C124.209938,89.706108 135.924362,89.706108 147.653839,89.706108 
	C147.653839,84.019783 147.653839,78.635284 147.653839,72.731155 
	C141.584717,72.731155 135.851746,72.731155 130.272522,72.731155 
	C130.272522,64.933830 130.272522,57.667477 130.272522,50.315269 
	C147.591583,50.315269 164.636307,50.315269 182.000000,50.315269 
	C182.000000,71.419434 182.000000,92.209717 182.000000,113.000000 
	C153.312439,113.000000 124.624878,113.000000 95.462082,112.646515 
	C88.815804,105.859840 82.537750,99.523621 76.554405,92.920357 
	C75.182480,91.406296 74.146034,88.985161 74.110825,86.961365 
	C73.891243,74.341644 73.986305,61.716190 74.004784,49.092674 
	C74.017181,40.623844 71.732643,31.170115 74.764145,23.960110 
	C77.867226,16.579859 86.200951,11.400132 92.239464,5.251631 
	C93.282936,4.189151 94.323227,3.120558 95.294968,1.994369 
	C95.416939,1.853005 95.108833,1.340529 95.000000,1.000000 
z"/>
<path fill="#3DABC5" opacity="1.000000" stroke="none" 
	d="
M503.000000,1.000000 
	C536.556396,1.000000 570.112732,1.000000 604.000000,1.000000 
	C604.000000,11.685285 604.000000,22.373983 603.531372,33.531342 
	C591.462708,34.000000 579.862671,34.000000 567.751648,34.000000 
	C567.751648,30.291487 567.751648,27.226574 567.751648,24.263065 
	C558.624146,24.263065 550.022156,24.263065 541.319397,24.263065 
	C541.319397,31.251276 541.319397,37.972031 541.319397,45.218544 
	C553.026733,45.218544 564.422913,45.218544 575.745239,45.218544 
	C575.745239,52.690052 575.745239,59.626938 575.745239,67.089279 
	C564.106140,67.089279 552.710693,67.089279 541.366821,67.089279 
	C541.366821,75.015144 541.366821,82.404243 541.366821,89.755447 
	C549.673950,89.755447 557.611938,89.755447 566.071289,89.755447 
	C566.071289,86.133583 566.071289,82.727936 566.071289,79.000000 
	C579.062805,79.000000 591.531433,79.000000 604.000000,79.000000 
	C604.000000,90.296486 604.000000,101.592964 604.000000,113.000000 
	C570.645874,113.000000 537.291565,113.000000 503.468658,112.531342 
	C503.000000,75.041786 503.000000,38.020893 503.000000,1.000000 
z"/>
<path fill="#3DABC5" opacity="1.000000" stroke="none" 
	d="
M461.000000,113.000000 
	C448.312439,113.000000 435.624878,113.000000 422.468658,112.531342 
	C422.000000,83.507378 422.000000,54.952080 422.000000,25.886076 
	C412.075043,25.886076 402.690399,25.886076 393.000000,25.886076 
	C393.000000,17.249754 393.000000,9.124877 393.000000,1.000000 
	C425.020905,1.000000 457.041779,1.000000 489.531342,1.468653 
	C490.000000,9.857399 490.000000,17.777493 490.000000,26.195938 
	C479.990143,26.195938 470.604675,26.195938 461.000000,26.195938 
	C461.000000,55.473022 461.000000,84.236511 461.000000,113.000000 
z"/>
<path fill="#000000" opacity="1.000000" stroke="none" 
	d="
M182.467606,113.000000 
	C182.000000,92.209717 182.000000,71.419434 182.000000,50.315269 
	C164.636307,50.315269 147.591583,50.315269 130.272522,50.315269 
	C130.272522,57.667477 130.272522,64.933830 130.272522,72.731155 
	C135.851746,72.731155 141.584717,72.731155 147.653839,72.731155 
	C147.653839,78.635284 147.653839,84.019783 147.653839,89.706108 
	C135.924362,89.706108 124.209938,89.706108 112.246933,89.706108 
	C112.246933,67.952820 112.246933,46.361580 112.246933,24.384727 
	C122.554535,24.384727 132.938507,24.384727 143.849731,24.384727 
	C143.849731,27.650200 143.849731,31.048187 143.849731,34.716782 
	C156.756516,34.716782 169.141159,34.716782 181.339081,34.716782 
	C184.780533,25.597023 179.058441,20.086969 173.861755,14.353471 
	C169.983734,10.074862 166.163742,5.743656 162.658966,1.217937 
	C174.354233,1.000000 185.708450,1.000000 197.538467,1.366039 
	C205.567566,14.244783 213.121796,26.756933 220.673965,39.270329 
	C233.355911,60.283432 246.074554,81.274590 258.679291,102.333908 
	C260.713837,105.733070 262.239258,109.436966 264.000000,113.000000 
	C253.312439,113.000000 242.624878,113.000000 231.263031,112.567986 
	C230.721405,96.690178 230.866669,81.244453 230.947372,65.798386 
	C230.951157,65.070900 230.469940,64.286186 230.064224,63.619663 
	C225.671280,56.402672 221.248199,49.204025 216.897705,41.666710 
	C215.988831,40.183846 215.015610,39.034637 214.011322,37.659161 
	C213.980255,37.432888 213.833344,37.000370 213.896240,36.643692 
	C211.986908,33.486492 210.014648,30.685963 208.011322,27.659161 
	C207.980255,27.432888 207.833344,27.000366 207.899109,26.691502 
	C207.255417,25.424995 206.545975,24.467356 205.798233,23.380968 
	C205.759933,23.252222 205.504318,23.169575 205.319244,22.896538 
	C203.436539,20.088352 201.738922,17.553204 199.442154,14.123311 
	C198.868546,17.992805 198.517624,20.360119 198.096466,23.150059 
	C198.073044,43.715065 198.119843,63.857445 198.096771,84.379410 
	C198.073486,87.839249 198.120071,90.919518 198.096680,94.456352 
	C198.073364,98.617287 198.120010,102.321655 198.096832,106.427597 
	C198.351349,108.886124 198.675674,110.943062 199.000000,113.000000 
	C193.645065,113.000000 188.290146,113.000000 182.467606,113.000000 
z"/>
<path fill="#3DABC5" opacity="1.000000" stroke="none" 
	d="
M321.000000,1.000000 
	C340.687561,1.000000 360.375122,1.000000 380.531342,1.468653 
	C381.000000,9.868629 381.000000,17.799953 381.000000,26.239239 
	C376.959595,26.239239 373.566162,26.239239 370.248596,26.239239 
	C370.248596,47.028660 370.248596,67.292351 370.248596,88.078369 
	C373.874817,88.078369 377.280853,88.078369 381.000000,88.078369 
	C381.000000,96.732307 381.000000,104.866158 381.000000,113.000000 
	C361.312439,113.000000 341.624878,113.000000 321.468658,112.531349 
	C321.000000,104.131371 321.000000,96.200043 321.000000,87.760757 
	C325.039703,87.760757 328.435272,87.760757 331.751404,87.760757 
	C331.751404,66.971329 331.751404,46.707642 331.751404,25.921631 
	C328.121765,25.921631 324.719940,25.921631 321.000000,25.921631 
	C321.000000,17.266684 321.000000,9.133342 321.000000,1.000000 
z"/>
<path fill="#3DABC5" opacity="1.000000" stroke="none" 
	d="
M1.000000,26.000000 
	C1.000000,17.709797 1.000000,9.419592 1.000000,1.000000 
	C20.687393,1.000000 40.375038,1.000000 60.531342,1.468653 
	C61.000000,9.868627 61.000000,17.799948 61.000000,26.239231 
	C56.959599,26.239231 53.566166,26.239231 50.248592,26.239231 
	C50.248592,47.028656 50.248592,67.292351 50.248592,88.078369 
	C53.878223,88.078369 57.280045,88.078369 61.000000,88.078369 
	C61.000000,96.732307 61.000000,104.866150 61.000000,113.000000 
	C41.103512,113.000000 21.207024,113.000000 1.000000,113.000000 
	C1.000000,104.981789 1.000000,96.959572 1.461835,88.468674 
	C5.184995,88.000000 8.446320,88.000000 11.694429,88.000000 
	C11.694429,67.017342 11.694429,46.666000 11.694429,26.000000 
	C7.928102,26.000000 4.464051,26.000000 1.000000,26.000000 
z"/>
<path fill="#000000" opacity="1.000000" stroke="none" 
	d="
M381.468658,113.000000 
	C381.000000,104.866158 381.000000,96.732307 381.000000,88.078369 
	C377.280853,88.078369 373.874817,88.078369 370.248596,88.078369 
	C370.248596,67.292351 370.248596,47.028660 370.248596,26.239239 
	C373.566162,26.239239 376.959595,26.239239 381.000000,26.239239 
	C381.000000,17.799953 381.000000,9.868629 381.000000,1.468653 
	C384.692902,1.000000 388.385834,1.000000 392.539368,1.000000 
	C393.000000,9.124877 393.000000,17.249754 393.000000,25.886076 
	C402.690399,25.886076 412.075043,25.886076 422.000000,25.886076 
	C422.000000,54.952080 422.000000,83.507378 422.000000,112.531342 
	C408.645782,113.000000 395.291534,113.000000 381.468658,113.000000 
z"/>
<path fill="#3DABC5" opacity="1.000000" stroke="none" 
	d="
M264.468658,113.000000 
	C262.239258,109.436966 260.713837,105.733070 258.679291,102.333908 
	C246.074554,81.274590 233.355911,60.283432 220.673965,39.270329 
	C213.121796,26.756933 205.567566,14.244783 198.007126,1.366039 
	C211.354233,1.000000 224.708450,1.000000 238.174713,1.236304 
	C244.993439,12.604222 251.675797,23.750591 258.412201,34.864201 
	C270.279999,54.443554 282.231812,73.972221 294.038513,93.588272 
	C297.869080,99.952484 301.355957,106.523544 305.000000,113.000000 
	C291.645782,113.000000 278.291534,113.000000 264.468658,113.000000 
z"/>
<path fill="#000000" opacity="1.000000" stroke="none" 
	d="
M461.468658,113.000000 
	C461.000000,84.236511 461.000000,55.473022 461.000000,26.195938 
	C470.604675,26.195938 479.990143,26.195938 490.000000,26.195938 
	C490.000000,17.777493 490.000000,9.857399 490.000000,1.468653 
	C494.024536,1.000000 498.049103,1.000000 502.536804,1.000000 
	C503.000000,38.020893 503.000000,75.041786 503.000000,112.531342 
	C489.312439,113.000000 475.624878,113.000000 461.468658,113.000000 
z"/>
<path fill="#000000" opacity="1.000000" stroke="none" 
	d="
M305.466858,113.000000 
	C301.355957,106.523544 297.869080,99.952484 294.038513,93.588272 
	C282.231812,73.972221 270.279999,54.443554 258.412201,34.864201 
	C251.675797,23.750591 244.993439,12.604222 238.643372,1.236304 
	C249.687561,1.000000 260.375122,1.000000 271.531342,1.468657 
	C272.000000,16.101679 271.809723,30.270460 272.138550,44.427185 
	C272.217224,47.814217 273.425568,51.509438 275.143311,54.464874 
	C281.854309,66.011581 288.979370,77.317627 295.947632,88.714851 
	C298.597748,93.049316 301.240265,97.388435 303.886230,101.725426 
	C304.257477,101.575722 304.628754,101.426018 305.000000,101.276314 
	C305.000000,67.850876 305.000000,34.425438 305.000000,1.000000 
	C310.022095,1.000000 315.044189,1.000000 320.533142,1.000000 
	C321.000000,9.133342 321.000000,17.266684 321.000000,25.921631 
	C324.719940,25.921631 328.121765,25.921631 331.751404,25.921631 
	C331.751404,46.707642 331.751404,66.971329 331.751404,87.760757 
	C328.435272,87.760757 325.039703,87.760757 321.000000,87.760757 
	C321.000000,96.200043 321.000000,104.131371 321.000000,112.531349 
	C315.977905,113.000000 310.955811,113.000000 305.466858,113.000000 
z"/>
<path fill="#000000" opacity="1.000000" stroke="none" 
	d="
M61.468658,113.000000 
	C61.000000,104.866150 61.000000,96.732307 61.000000,88.078369 
	C57.280045,88.078369 53.878223,88.078369 50.248592,88.078369 
	C50.248592,67.292351 50.248592,47.028656 50.248592,26.239231 
	C53.566166,26.239231 56.959599,26.239231 61.000000,26.239231 
	C61.000000,17.799948 61.000000,9.868627 61.000000,1.468653 
	C72.020897,1.000000 83.041786,1.000000 94.531342,1.000000 
	C95.108833,1.340529 95.416939,1.853005 95.294968,1.994369 
	C94.323227,3.120558 93.282936,4.189151 92.239464,5.251631 
	C86.200951,11.400132 77.867226,16.579859 74.764145,23.960110 
	C71.732643,31.170115 74.017181,40.623844 74.004784,49.092674 
	C73.986305,61.716190 73.891243,74.341644 74.110825,86.961365 
	C74.146034,88.985161 75.182480,91.406296 76.554405,92.920357 
	C82.537750,99.523621 88.815804,105.859840 94.993423,112.646515 
	C83.979103,113.000000 72.958214,113.000000 61.468658,113.000000 
z"/>
<path fill="#000000" opacity="1.000000" stroke="none" 
	d="
M604.000000,78.531342 
	C591.531433,79.000000 579.062805,79.000000 566.071289,79.000000 
	C566.071289,82.727936 566.071289,86.133583 566.071289,89.755447 
	C557.611938,89.755447 549.673950,89.755447 541.366821,89.755447 
	C541.366821,82.404243 541.366821,75.015144 541.366821,67.089279 
	C552.710693,67.089279 564.106140,67.089279 575.745239,67.089279 
	C575.745239,59.626938 575.745239,52.690052 575.745239,45.218544 
	C564.422913,45.218544 553.026733,45.218544 541.319397,45.218544 
	C541.319397,37.972031 541.319397,31.251276 541.319397,24.263065 
	C550.022156,24.263065 558.624146,24.263065 567.751648,24.263065 
	C567.751648,27.226574 567.751648,30.291487 567.751648,34.000000 
	C579.862671,34.000000 591.462708,34.000000 603.531372,34.000000 
	C604.000000,48.687561 604.000000,63.375122 604.000000,78.531342 
z"/>
<path fill="#3DABC5" opacity="1.000000" stroke="none" 
	d="
M304.531342,1.000000 
	C305.000000,34.425438 305.000000,67.850876 305.000000,101.276314 
	C304.628754,101.426018 304.257477,101.575722 303.886230,101.725426 
	C301.240265,97.388435 298.597748,93.049316 295.947632,88.714851 
	C288.979370,77.317627 281.854309,66.011581 275.143311,54.464874 
	C273.425568,51.509438 272.217224,47.814217 272.138550,44.427185 
	C271.809723,30.270460 272.000000,16.101679 272.000000,1.468657 
	C282.687561,1.000000 293.375122,1.000000 304.531342,1.000000 
z"/>
<path fill="#3DABC5" opacity="1.000000" stroke="none" 
	d="
M207.833344,27.000370 
	C207.833344,27.000366 207.980255,27.432888 208.019714,28.038197 
	C209.983902,31.429127 211.908630,34.214748 213.833344,37.000370 
	C213.833344,37.000370 213.980255,37.432888 214.017960,38.023495 
	C214.981567,39.742855 215.907455,40.871613 216.833344,42.000366 
	C221.248199,49.204025 225.671280,56.402672 230.064224,63.619663 
	C230.469940,64.286186 230.951157,65.070900 230.947372,65.798386 
	C230.866669,81.244453 230.721405,96.690178 230.794373,112.567986 
	C220.979111,113.000000 210.958206,113.000000 200.468658,112.571533 
	C200.000000,110.428719 200.000000,108.714355 200.000000,106.539474 
	C199.388885,102.052551 198.777771,98.026169 198.166656,93.999779 
	C198.120071,90.919518 198.073486,87.839249 198.406799,84.164940 
	C199.191010,81.518784 199.935898,79.468399 199.946335,77.414299 
	C200.038345,59.276573 199.999893,41.138187 200.216187,22.817759 
	C202.123016,22.813536 203.813675,22.991556 205.504318,23.169575 
	C205.504318,23.169575 205.759933,23.252222 205.691269,23.721519 
	C206.359512,25.127337 207.096420,26.063854 207.833344,27.000370 
z"/>
<path fill="#000000" opacity="1.000000" stroke="none" 
	d="
M1.000000,26.468658 
	C4.464051,26.000000 7.928102,26.000000 11.694429,26.000000 
	C11.694429,46.666000 11.694429,67.017342 11.694429,88.000000 
	C8.446320,88.000000 5.184995,88.000000 1.461835,88.000000 
	C1.000000,67.645775 1.000000,47.291542 1.000000,26.468658 
z"/>
<path fill="#3DABC5" opacity="1.000000" stroke="none" 
	d="
M200.000000,107.000000 
	C200.000000,108.714355 200.000000,110.428719 200.000000,112.571533 
	C200.000000,113.000000 199.500000,113.000000 199.250000,113.000000 
	C198.675674,110.943062 198.351349,108.886124 198.324463,106.552277 
	C199.081268,106.516914 199.540634,106.758453 200.000000,107.000000 
z"/>
<path fill="#3DABC5" opacity="1.000000" stroke="none" 
	d="
M200.000000,23.000000 
	C199.999893,41.138187 200.038345,59.276573 199.946335,77.414299 
	C199.935898,79.468399 199.191010,81.518784 198.476669,83.785355 
	C198.119843,63.857445 198.073044,43.715065 198.554596,23.219410 
	C199.388657,22.910757 199.694321,22.955378 200.000000,23.000000 
z"/>
<path fill="#3DABC5" opacity="1.000000" stroke="none" 
	d="
M200.216187,22.817759 
	C199.694321,22.955378 199.388657,22.910757 198.624832,22.796783 
	C198.517624,20.360119 198.868546,17.992805 199.442154,14.123311 
	C201.738922,17.553204 203.436539,20.088352 205.319244,22.896538 
	C203.813675,22.991556 202.123016,22.813536 200.216187,22.817759 
z"/>
<path fill="#3DABC5" opacity="1.000000" stroke="none" 
	d="
M200.000000,106.539474 
	C199.540634,106.758453 199.081268,106.516914 198.394287,106.150696 
	C198.120010,102.321655 198.073364,98.617287 198.096680,94.456352 
	C198.777771,98.026169 199.388885,102.052551 200.000000,106.539474 
z"/>
<path fill="#3DABC5" opacity="1.000000" stroke="none" 
	d="
M213.896240,36.643692 
	C211.908630,34.214748 209.983902,31.429127 208.050781,28.264471 
	C210.014648,30.685963 211.986908,33.486492 213.896240,36.643692 
z"/>
<path fill="#3DABC5" opacity="1.000000" stroke="none" 
	d="
M216.897705,41.666710 
	C215.907455,40.871613 214.981567,39.742855 214.049026,38.249767 
	C215.015610,39.034637 215.988831,40.183846 216.897705,41.666710 
z"/>
<path fill="#3DABC5" opacity="1.000000" stroke="none" 
	d="
M207.899094,26.691505 
	C207.096420,26.063854 206.359512,25.127337 205.729568,23.850266 
	C206.545975,24.467356 207.255417,25.424995 207.899094,26.691505 
z"/>
</svg>