<svg version="1.1" id="Layer_1" xmlns="http://www.w3.org/2000/svg" xmlns:xlink="http://www.w3.org/1999/xlink" x="0px" y="0px"
	 width="100%" viewBox="0 0 590 112" enable-background="new 0 0 590 112" xml:space="preserve">
<path fill="#000000" opacity="1.000000" stroke="none" 
	d="
M238.000000,0.999998 
	C249.020889,1.000000 260.041779,1.000000 271.531342,1.468657 
	C272.000000,16.770002 271.935608,31.603304 272.077393,46.434635 
	C272.096191,48.399914 272.811554,50.558285 273.804169,52.281765 
	C279.815613,62.719604 285.927338,73.101768 292.156250,83.411491 
	C295.950348,89.691269 300.014801,95.807701 303.957825,101.997498 
	C304.305237,101.902176 304.652618,101.806854 305.000000,101.711540 
	C305.000000,68.141029 305.000000,34.570515 305.000000,1.000000 
	C320.020905,1.000000 335.041779,1.000000 350.870178,1.261769 
	C350.315674,2.347197 348.954010,3.171476 347.591522,3.994408 
	C342.471130,7.087005 336.755371,9.503600 332.338379,13.394581 
	C317.414917,26.540825 318.255127,47.453651 327.929199,63.436829 
	C330.357910,67.449478 332.729248,71.501167 334.990204,75.610153 
	C339.189331,83.241600 339.162323,91.631744 338.988037,100.350418 
	C337.937805,103.680557 337.066162,106.660896 336.072144,110.059647 
	C337.328522,109.852951 338.198853,109.921371 338.842957,109.572350 
	C350.207336,103.414726 360.467773,95.888992 366.366791,84.016373 
	C370.286346,76.127747 372.153015,67.724579 368.288391,59.016209 
	C368.370239,58.573986 368.206329,58.229740 367.959717,57.636127 
	C367.598938,56.962566 367.320801,56.538376 367.288391,56.016205 
	C367.370239,55.573982 367.206329,55.229740 366.959717,54.636116 
	C366.598999,53.962479 366.320953,53.538223 366.284729,53.018997 
	C366.351227,52.671570 366.175873,52.419117 365.764709,52.064407 
	C365.366913,51.679436 365.204895,51.396709 365.284729,51.019005 
	C365.351227,50.671574 365.175873,50.419121 364.764709,50.064407 
	C364.366913,49.679424 364.204895,49.396698 364.284760,49.018997 
	C364.351257,48.671562 364.175873,48.419106 363.764709,48.064400 
	C363.366913,47.679428 363.204895,47.396706 363.284729,47.018997 
	C363.351257,46.671566 363.175873,46.419109 362.784241,46.093262 
	C362.568024,46.019867 362.115479,45.958431 362.150818,45.651821 
	C361.471466,44.525162 360.756744,43.705112 360.027710,42.692276 
	C360.013397,42.499489 360.042877,42.113979 360.284729,42.019005 
	C360.351227,41.671577 360.175842,41.419125 359.764709,41.064407 
	C359.366913,40.679424 359.204895,40.396702 359.284729,40.019005 
	C359.351227,39.671581 359.175842,39.419128 358.764709,39.064415 
	C358.366913,38.679428 358.204895,38.396706 358.284729,38.019005 
	C358.351257,37.671570 358.175873,37.419113 357.764709,37.064423 
	C357.366852,36.679523 357.204742,36.396862 357.288422,36.016212 
	C357.370239,35.573978 357.206329,35.229736 356.959747,34.636131 
	C356.598938,33.962574 356.320801,33.538383 356.288391,33.016212 
	C356.370239,32.573986 356.206299,32.229740 355.959717,31.636127 
	C355.598938,30.962568 355.320801,30.538380 355.288391,30.016212 
	C355.370209,29.573990 355.206299,29.229748 355.020020,28.580622 
	C354.679352,27.555223 354.360992,26.834707 354.288391,26.016211 
	C354.370239,25.573986 354.206299,25.229742 354.024567,24.425945 
	C354.373413,17.994043 354.740112,12.021695 355.428589,5.858853 
	C356.166901,4.112239 356.583466,2.556119 357.000000,1.000000 
	C364.687592,1.000000 372.375153,1.000000 380.531372,1.468653 
	C381.000000,9.857318 381.000000,17.777330 381.000000,26.196239 
	C390.676361,26.196239 399.728912,26.196239 409.000000,26.196239 
	C409.000000,55.473591 409.000000,84.236794 409.000000,113.000000 
	C374.645782,113.000000 340.291534,113.000000 305.461548,112.633957 
	C301.266174,106.000420 297.603210,99.698517 293.816864,93.471626 
	C280.234619,71.134773 266.575134,48.844826 253.020721,26.491159 
	C247.907516,18.058563 243.000839,9.500737 238.000000,0.999998 
z"/>
<path fill="#3DABC5" opacity="1.000000" stroke="none" 
	d="
M95.000000,1.000002 
	C117.354225,1.000000 139.708450,1.000000 162.189911,1.220994 
	C165.929855,5.514423 169.403748,9.721336 173.187576,13.628043 
	C178.984650,19.613382 183.594086,25.859192 180.248016,34.738087 
	C168.279816,34.738087 156.346603,34.738087 143.893951,34.738087 
	C143.893951,31.093021 143.893951,27.692638 143.893951,24.365742 
	C132.981079,24.365742 122.596092,24.365742 112.232460,24.365742 
	C112.232460,46.326385 112.232460,67.920448 112.232460,89.718094 
	C124.181892,89.718094 135.897842,89.718094 147.664719,89.718094 
	C147.664719,84.044228 147.664719,78.659668 147.664719,72.751671 
	C141.607025,72.751671 135.873840,72.751671 130.264404,72.751671 
	C130.264404,64.952278 130.264404,57.685001 130.264404,50.310928 
	C147.244339,50.310928 163.958237,50.310928 181.000000,50.310928 
	C181.000000,71.413490 181.000000,92.206741 181.000000,113.000000 
	C152.645767,113.000000 124.291542,113.000000 95.462082,112.646515 
	C90.096909,107.134430 85.563423,101.563606 80.213264,96.937218 
	C75.212265,92.612762 73.555771,87.875938 73.851189,81.370850 
	C74.379509,69.737061 73.980324,58.061996 74.006973,46.404274 
	C74.024475,38.748566 72.023766,30.224270 74.749680,23.681698 
	C77.476135,17.137796 85.019386,12.633946 90.321510,7.111332 
	C92.087219,5.272197 93.451958,3.048110 95.000000,1.000002 
z"/>
<path fill="#3DABC5" opacity="1.000000" stroke="none" 
	d="
M490.000000,1.000000 
	C523.556396,1.000000 557.112732,1.000000 591.000000,1.000000 
	C591.000000,11.685285 591.000000,22.373983 590.531372,33.531342 
	C578.795837,34.000000 567.529053,34.000000 555.751587,34.000000 
	C555.751587,30.288139 555.751587,27.227140 555.751587,24.263065 
	C546.290833,24.263065 537.355347,24.263065 528.319397,24.263065 
	C528.319397,31.251276 528.319397,37.972031 528.319397,45.218544 
	C540.026733,45.218544 551.422913,45.218544 562.745239,45.218544 
	C562.745239,52.690052 562.745239,59.626938 562.745239,67.089279 
	C551.106140,67.089279 539.710693,67.089279 528.366821,67.089279 
	C528.366821,75.015144 528.366821,82.404243 528.366821,89.755447 
	C536.673950,89.755447 544.611938,89.755447 553.071289,89.755447 
	C553.071289,86.133583 553.071289,82.727936 553.071289,79.000000 
	C566.062805,79.000000 578.531433,79.000000 591.000000,79.000000 
	C591.000000,90.296486 591.000000,101.592964 591.000000,113.000000 
	C557.645874,113.000000 524.291565,113.000000 490.468658,112.531342 
	C490.000000,75.041786 490.000000,38.020893 490.000000,1.000000 
z"/>
<path fill="#3DABC5" opacity="1.000000" stroke="none" 
	d="
M409.468658,113.000000 
	C409.000000,84.236794 409.000000,55.473591 409.000000,26.196239 
	C399.728912,26.196239 390.676361,26.196239 381.000000,26.196239 
	C381.000000,17.777330 381.000000,9.857318 381.000000,1.468653 
	C412.687561,1.000000 444.375122,1.000000 476.531342,1.468653 
	C477.000000,9.857318 477.000000,17.777330 477.000000,26.196239 
	C467.323639,26.196239 458.271088,26.196239 449.000000,26.196239 
	C449.000000,55.473568 449.000000,84.236786 449.000000,113.000000 
	C435.979095,113.000000 422.958221,113.000000 409.468658,113.000000 
z"/>
<path fill="#000000" opacity="1.000000" stroke="none" 
	d="
M181.467606,113.000000 
	C181.000000,92.206741 181.000000,71.413490 181.000000,50.310928 
	C163.958237,50.310928 147.244339,50.310928 130.264404,50.310928 
	C130.264404,57.685001 130.264404,64.952278 130.264404,72.751671 
	C135.873840,72.751671 141.607025,72.751671 147.664719,72.751671 
	C147.664719,78.659668 147.664719,84.044228 147.664719,89.718094 
	C135.897842,89.718094 124.181892,89.718094 112.232460,89.718094 
	C112.232460,67.920448 112.232460,46.326385 112.232460,24.365742 
	C122.596092,24.365742 132.981079,24.365742 143.893951,24.365742 
	C143.893951,27.692638 143.893951,31.093021 143.893951,34.738087 
	C156.346603,34.738087 168.279816,34.738087 180.248016,34.738087 
	C183.594086,25.859192 178.984650,19.613382 173.187576,13.628043 
	C169.403748,9.721336 165.929855,5.514423 162.658569,1.220994 
	C174.354233,1.000000 185.708450,1.000000 197.538544,1.367074 
	C198.993561,3.409217 199.951767,5.096953 200.955002,6.757481 
	C220.198090,38.608414 239.492050,70.428841 258.624481,102.346085 
	C260.576080,105.601791 261.564575,109.434853 263.000000,113.000000 
	C252.645767,113.000000 242.291550,113.000000 231.468658,112.531342 
	C230.999985,97.251251 231.021317,82.439751 230.969070,67.628502 
	C230.963455,66.038521 230.990891,64.171043 230.223999,62.903652 
	C221.719131,48.848042 213.065842,34.882172 204.438599,20.900730 
	C202.753799,18.170326 201.008743,15.477111 199.291473,12.766747 
	C198.860977,12.957244 198.430496,13.147742 198.000000,13.338240 
	C198.000000,46.558826 198.000000,79.779411 198.000000,113.000000 
	C192.645065,113.000000 187.290146,113.000000 181.467606,113.000000 
z"/>
<path fill="#3DABC5" opacity="1.000000" stroke="none" 
	d="
M60.000000,113.000000 
	C40.436344,113.000000 20.872684,113.000000 1.000000,113.000000 
	C1.000000,104.981766 1.000000,96.959557 1.461835,88.468674 
	C5.184995,88.000000 8.446320,88.000000 11.694429,88.000000 
	C11.694429,67.017342 11.694429,46.666000 11.694429,26.000000 
	C7.928102,26.000000 4.464051,26.000000 1.000000,26.000000 
	C1.000000,17.710312 1.000000,9.420626 1.000000,1.000000 
	C20.354053,1.000000 39.708370,1.000000 59.531342,1.468653 
	C60.000000,9.868627 60.000000,17.799948 60.000000,26.239231 
	C55.959599,26.239231 52.566166,26.239231 49.248592,26.239231 
	C49.248592,47.028656 49.248592,67.292351 49.248592,88.078369 
	C52.878223,88.078369 56.280045,88.078369 60.000000,88.078369 
	C60.000000,96.732307 60.000000,104.866150 60.000000,113.000000 
z"/>
<path fill="#3DABC5" opacity="1.000000" stroke="none" 
	d="
M263.468658,113.000000 
	C261.564575,109.434853 260.576080,105.601791 258.624481,102.346085 
	C239.492050,70.428841 220.198090,38.608414 200.955002,6.757481 
	C199.951767,5.096953 198.993561,3.409217 198.007202,1.367074 
	C211.020889,1.000000 224.041794,1.000000 237.531342,0.999998 
	C243.000839,9.500737 247.907516,18.058563 253.020721,26.491159 
	C266.575134,48.844826 280.234619,71.134773 293.816864,93.471626 
	C297.603210,99.698517 301.266174,106.000420 304.992859,112.633957 
	C291.312439,113.000000 277.624878,113.000000 263.468658,113.000000 
z"/>
<path fill="#000000" opacity="1.000000" stroke="none" 
	d="
M449.468658,113.000000 
	C449.000000,84.236786 449.000000,55.473568 449.000000,26.196239 
	C458.271088,26.196239 467.323639,26.196239 477.000000,26.196239 
	C477.000000,17.777330 477.000000,9.857318 477.000000,1.468653 
	C481.024536,1.000000 485.049103,1.000000 489.536804,1.000000 
	C490.000000,38.020893 490.000000,75.041786 490.000000,112.531342 
	C476.645782,113.000000 463.291534,113.000000 449.468658,113.000000 
z"/>
<path fill="#000000" opacity="1.000000" stroke="none" 
	d="
M60.468658,113.000000 
	C60.000000,104.866150 60.000000,96.732307 60.000000,88.078369 
	C56.280045,88.078369 52.878223,88.078369 49.248592,88.078369 
	C49.248592,67.292351 49.248592,47.028656 49.248592,26.239231 
	C52.566166,26.239231 55.959599,26.239231 60.000000,26.239231 
	C60.000000,17.799948 60.000000,9.868627 60.000000,1.468653 
	C71.354225,1.000000 82.708458,1.000000 94.531342,1.000002 
	C93.451958,3.048110 92.087219,5.272197 90.321510,7.111332 
	C85.019386,12.633946 77.476135,17.137796 74.749680,23.681698 
	C72.023766,30.224270 74.024475,38.748566 74.006973,46.404274 
	C73.980324,58.061996 74.379509,69.737061 73.851189,81.370850 
	C73.555771,87.875938 75.212265,92.612762 80.213264,96.937218 
	C85.563423,101.563606 90.096909,107.134430 94.993423,112.646515 
	C83.645775,113.000000 72.291542,113.000000 60.468658,113.000000 
z"/>
<path fill="#000000" opacity="1.000000" stroke="none" 
	d="
M591.000000,78.531342 
	C578.531433,79.000000 566.062805,79.000000 553.071289,79.000000 
	C553.071289,82.727936 553.071289,86.133583 553.071289,89.755447 
	C544.611938,89.755447 536.673950,89.755447 528.366821,89.755447 
	C528.366821,82.404243 528.366821,75.015144 528.366821,67.089279 
	C539.710693,67.089279 551.106140,67.089279 562.745239,67.089279 
	C562.745239,59.626938 562.745239,52.690052 562.745239,45.218544 
	C551.422913,45.218544 540.026733,45.218544 528.319397,45.218544 
	C528.319397,37.972031 528.319397,31.251276 528.319397,24.263065 
	C537.355347,24.263065 546.290833,24.263065 555.751587,24.263065 
	C555.751587,27.227140 555.751587,30.288139 555.751587,34.000000 
	C567.529053,34.000000 578.795837,34.000000 590.531372,34.000000 
	C591.000000,48.687561 591.000000,63.375122 591.000000,78.531342 
z"/>
<path fill="#3DABC5" opacity="1.000000" stroke="none" 
	d="
M304.531342,1.000000 
	C305.000000,34.570515 305.000000,68.141029 305.000000,101.711540 
	C304.652618,101.806854 304.305237,101.902176 303.957825,101.997498 
	C300.014801,95.807701 295.950348,89.691269 292.156250,83.411491 
	C285.927338,73.101768 279.815613,62.719604 273.804169,52.281765 
	C272.811554,50.558285 272.096191,48.399914 272.077393,46.434635 
	C271.935608,31.603304 272.000000,16.770002 272.000000,1.468657 
	C282.687561,1.000000 293.375122,1.000000 304.531342,1.000000 
z"/>
<path fill="#3DABC5" opacity="1.000000" stroke="none" 
	d="
M227.000000,113.000000 
	C218.312439,113.000000 209.624863,113.000000 200.468658,112.531342 
	C200.000000,83.750786 200.000000,55.438881 200.000000,27.126980 
	C200.572144,26.947449 201.144302,26.767918 201.716446,26.588385 
	C202.026443,27.176502 202.305557,27.783438 202.650940,28.349985 
	C210.359314,40.994549 218.161133,53.583763 225.693726,66.332069 
	C226.786209,68.180992 226.925949,70.785187 226.944733,73.044548 
	C227.055374,86.362267 226.999695,99.681366 227.000000,113.000000 
z"/>
<path fill="#3DABC5" opacity="1.000000" stroke="none" 
	d="
M227.399994,113.000000 
	C226.999695,99.681366 227.055374,86.362267 226.944733,73.044548 
	C226.925949,70.785187 226.786209,68.180992 225.693726,66.332069 
	C218.161133,53.583763 210.359314,40.994549 202.650940,28.349985 
	C202.305557,27.783438 202.026443,27.176502 201.716446,26.588385 
	C201.144302,26.767918 200.572144,26.947449 200.000000,27.126980 
	C200.000000,55.438881 200.000000,83.750786 200.000000,112.531342 
	C199.555557,113.000000 199.111099,113.000000 198.333328,113.000000 
	C198.000000,79.779411 198.000000,46.558826 198.000000,13.338240 
	C198.430496,13.147742 198.860977,12.957244 199.291473,12.766747 
	C201.008743,15.477111 202.753799,18.170326 204.438599,20.900730 
	C213.065842,34.882172 221.719131,48.848042 230.223999,62.903652 
	C230.990891,64.171043 230.963455,66.038521 230.969070,67.628502 
	C231.021317,82.439751 230.999985,97.251251 231.000000,112.531342 
	C229.933334,113.000000 228.866653,113.000000 227.399994,113.000000 
z"/>
<path fill="#000000" opacity="1.000000" stroke="none" 
	d="
M1.000000,26.468658 
	C4.464051,26.000000 7.928102,26.000000 11.694429,26.000000 
	C11.694429,46.666000 11.694429,67.017342 11.694429,88.000000 
	C8.446320,88.000000 5.184995,88.000000 1.461835,88.000000 
	C1.000000,67.645775 1.000000,47.291542 1.000000,26.468658 
z"/>
<path fill="#3DABC5" opacity="1.000000" stroke="none" 
	d="
M356.571533,1.000000 
	C356.583466,2.556119 356.166901,4.112239 355.092255,5.722907 
	C344.610931,3.695115 326.794861,19.376881 324.889954,30.037043 
	C322.569824,43.021004 324.767639,54.631634 332.254639,65.588562 
	C338.242889,74.352066 341.984650,84.174980 341.865631,95.009521 
	C341.847260,96.682907 340.109344,98.337402 339.166687,100.000626 
	C339.162323,91.631744 339.189331,83.241600 334.990204,75.610153 
	C332.729248,71.501167 330.357910,67.449478 327.929199,63.436829 
	C318.255127,47.453651 317.414917,26.540825 332.338379,13.394581 
	C336.755371,9.503600 342.471130,7.087005 347.591522,3.994408 
	C348.954010,3.171476 350.315674,2.347197 351.338867,1.261769 
	C352.714355,1.000000 354.428711,1.000000 356.571533,1.000000 
z"/>
<path fill="#3DABC5" opacity="1.000000" stroke="none" 
	d="
M338.988037,100.350426 
	C340.109344,98.337402 341.847260,96.682907 341.865631,95.009521 
	C341.984650,84.174980 338.242889,74.352066 332.254639,65.588562 
	C324.767639,54.631634 322.569824,43.021004 324.889954,30.037043 
	C326.794861,19.376881 344.610931,3.695115 354.770477,5.913401 
	C354.740112,12.021695 354.373413,17.994043 354.017914,24.733135 
	C354.033630,25.704651 354.038147,25.909422 354.042664,26.114191 
	C354.360992,26.834707 354.679352,27.555223 355.013367,28.887810 
	C355.033630,29.704651 355.038147,29.909422 355.042664,30.114189 
	C355.320801,30.538380 355.598938,30.962568 355.953064,31.943316 
	C356.033630,32.704647 356.038147,32.909420 356.042664,33.114189 
	C356.320801,33.538383 356.598938,33.962574 356.953064,34.943321 
	C357.033630,35.704647 357.038147,35.909420 357.042664,36.114193 
	C357.204742,36.396862 357.366852,36.679523 357.773132,37.301350 
	C358.017273,37.640514 358.042877,38.113979 358.042877,38.113983 
	C358.204895,38.396706 358.366913,38.679428 358.773102,39.301334 
	C359.017273,39.640514 359.042877,40.113979 359.042877,40.113976 
	C359.204895,40.396702 359.366913,40.679424 359.773102,41.301331 
	C360.017273,41.640514 360.042877,42.113979 360.042877,42.113979 
	C360.042877,42.113979 360.013397,42.499489 360.063507,43.028503 
	C360.780884,44.357826 361.448181,45.158131 362.115479,45.958435 
	C362.115479,45.958431 362.568024,46.019867 362.792664,46.330193 
	C363.017273,46.640514 363.042877,47.113979 363.042877,47.113979 
	C363.204895,47.396706 363.366913,47.679428 363.773102,48.301331 
	C364.017273,48.640514 364.042877,49.113979 364.042877,49.113976 
	C364.204895,49.396698 364.366913,49.679424 364.773102,50.301331 
	C365.017273,50.640514 365.042877,51.113979 365.042877,51.113983 
	C365.204895,51.396709 365.366913,51.679436 365.773102,52.301338 
	C366.017273,52.640514 366.042877,53.113979 366.042877,53.113976 
	C366.320953,53.538223 366.598999,53.962479 366.953064,54.943302 
	C367.033630,55.704647 367.038147,55.909420 367.042664,56.114189 
	C367.320801,56.538376 367.598938,56.962566 367.953064,57.943314 
	C368.033630,58.704647 368.038147,58.909420 368.042664,59.114189 
	C372.153015,67.724579 370.286346,76.127747 366.366791,84.016373 
	C360.467773,95.888992 350.207336,103.414726 338.842957,109.572350 
	C338.198853,109.921371 337.328522,109.852951 336.072144,110.059647 
	C337.066162,106.660896 337.937805,103.680557 338.988037,100.350426 
z"/>
<path fill="#3DABC5" opacity="1.000000" stroke="none" 
	d="
M362.150818,45.651825 
	C361.448181,45.158131 360.780884,44.357826 360.077820,43.221291 
	C360.756744,43.705112 361.471466,44.525162 362.150818,45.651825 
z"/>
<path fill="#3DABC5" opacity="1.000000" stroke="none" 
	d="
M356.288391,33.016209 
	C356.038147,32.909420 356.033630,32.704647 356.035736,32.192688 
	C356.206299,32.229740 356.370239,32.573986 356.288391,33.016209 
z"/>
<path fill="#3DABC5" opacity="1.000000" stroke="none" 
	d="
M357.288422,36.016205 
	C357.038147,35.909420 357.033630,35.704647 357.035767,35.192684 
	C357.206329,35.229736 357.370239,35.573978 357.288422,36.016205 
z"/>
<path fill="#3DABC5" opacity="1.000000" stroke="none" 
	d="
M358.284729,38.019001 
	C358.042877,38.113979 358.017273,37.640514 358.008881,37.403587 
	C358.175873,37.419113 358.351257,37.671570 358.284729,38.019001 
z"/>
<path fill="#3DABC5" opacity="1.000000" stroke="none" 
	d="
M359.284729,40.019009 
	C359.042877,40.113979 359.017273,39.640514 359.008881,39.403595 
	C359.175842,39.419128 359.351227,39.671581 359.284729,40.019009 
z"/>
<path fill="#3DABC5" opacity="1.000000" stroke="none" 
	d="
M360.284729,42.019005 
	C360.042877,42.113979 360.017273,41.640514 360.008881,41.403591 
	C360.175842,41.419125 360.351227,41.671577 360.284729,42.019005 
z"/>
<path fill="#3DABC5" opacity="1.000000" stroke="none" 
	d="
M363.284729,47.018997 
	C363.042877,47.113979 363.017273,46.640514 363.008881,46.403587 
	C363.175873,46.419109 363.351257,46.671566 363.284729,47.018997 
z"/>
<path fill="#3DABC5" opacity="1.000000" stroke="none" 
	d="
M364.284760,49.018997 
	C364.042877,49.113979 364.017273,48.640514 364.008911,48.403584 
	C364.175873,48.419106 364.351257,48.671562 364.284760,49.018997 
z"/>
<path fill="#3DABC5" opacity="1.000000" stroke="none" 
	d="
M355.288391,30.016212 
	C355.038147,29.909422 355.033630,29.704651 355.035736,29.192692 
	C355.206299,29.229748 355.370209,29.573990 355.288391,30.016212 
z"/>
<path fill="#3DABC5" opacity="1.000000" stroke="none" 
	d="
M365.284729,51.019005 
	C365.042877,51.113979 365.017273,50.640514 365.008881,50.403587 
	C365.175873,50.419121 365.351227,50.671574 365.284729,51.019005 
z"/>
<path fill="#3DABC5" opacity="1.000000" stroke="none" 
	d="
M366.284729,53.019001 
	C366.042877,53.113979 366.017273,52.640514 366.008881,52.403587 
	C366.175873,52.419117 366.351227,52.671570 366.284729,53.019001 
z"/>
<path fill="#3DABC5" opacity="1.000000" stroke="none" 
	d="
M367.288391,56.016209 
	C367.038147,55.909420 367.033630,55.704647 367.035736,55.192688 
	C367.206329,55.229740 367.370239,55.573982 367.288391,56.016209 
z"/>
<path fill="#3DABC5" opacity="1.000000" stroke="none" 
	d="
M368.288391,59.016209 
	C368.038147,58.909420 368.033630,58.704647 368.035736,58.192688 
	C368.206329,58.229740 368.370239,58.573986 368.288391,59.016209 
z"/>
<path fill="#3DABC5" opacity="1.000000" stroke="none" 
	d="
M354.288391,26.016211 
	C354.038147,25.909422 354.033630,25.704651 354.035736,25.192688 
	C354.206299,25.229742 354.370239,25.573986 354.288391,26.016211 
z"/>
</svg>