<svg version="1.1" id="Layer_1" xmlns="http://www.w3.org/2000/svg" xmlns:xlink="http://www.w3.org/1999/xlink" x="0px" y="0px"
	 width="100%" viewBox="0 0 603 111" enable-background="new 0 0 603 111" xml:space="preserve">
<path fill="#FFFFFF" opacity="1.000000" stroke="none" 
	d="
M182.000000,112.000000 
	C153.312439,112.000000 124.624878,112.000000 95.754028,111.721970 
	C89.160507,104.925240 82.660255,98.490829 76.414009,91.818619 
	C75.124092,90.440727 74.117378,88.182869 74.101952,86.321289 
	C73.937752,66.508636 73.927032,46.693417 74.112213,26.881126 
	C74.130859,24.886875 75.258873,22.484852 76.647842,20.995667 
	C81.980598,15.278183 87.661705,9.887030 93.126938,4.290242 
	C93.979919,3.416740 94.386826,2.107662 95.000000,1.000001 
	C117.687561,1.000000 140.375122,1.000000 163.244003,1.287571 
	C167.406555,6.340484 170.906921,11.644047 175.488556,15.737349 
	C181.453568,21.066563 183.236328,27.118164 181.605759,34.643211 
	C169.097321,34.643211 156.577255,34.643211 143.851410,34.643211 
	C143.851410,30.996607 143.851410,27.705875 143.851410,24.352333 
	C133.118332,24.352333 122.600479,24.352333 112.334175,24.352333 
	C112.334175,46.097271 112.334175,67.489075 112.334175,88.674332 
	C124.403419,88.674332 136.136642,88.674332 147.675156,88.674332 
	C147.675156,83.272926 147.675156,78.201813 147.675156,72.748672 
	C141.611420,72.748672 135.870117,72.748672 130.319687,72.748672 
	C130.319687,64.947258 130.319687,57.543911 130.319687,50.306080 
	C147.701874,50.306080 164.763000,50.306080 182.000000,50.306080 
	C182.000000,71.074417 182.000000,91.537209 182.000000,112.000000 
z"/>
<path fill="#FFFFFF" opacity="1.000000" stroke="none" 
	d="
M503.000000,1.000000 
	C536.556396,1.000000 570.112732,1.000000 604.000000,1.000000 
	C604.000000,11.685285 604.000000,22.373983 603.531372,33.531342 
	C591.791443,34.000000 580.520203,34.000000 568.862671,34.000000 
	C568.862671,30.070326 568.862671,26.655190 568.862671,23.268787 
	C559.393982,23.268787 550.322266,23.268787 541.271851,23.268787 
	C541.271851,30.612383 541.271851,37.684361 541.271851,45.149284 
	C552.947937,45.149284 564.357422,45.149284 575.722778,45.149284 
	C575.722778,52.623634 575.722778,59.696102 575.722778,67.160080 
	C564.041077,67.160080 552.631470,67.160080 541.282654,67.160080 
	C541.282654,74.634789 541.282654,81.707619 541.282654,88.717026 
	C549.643127,88.717026 557.718018,88.717026 566.179871,88.717026 
	C566.179871,85.027359 566.179871,81.615166 566.179871,78.000000 
	C579.048767,78.000000 591.524353,78.000000 604.000000,78.000000 
	C604.000000,89.296486 604.000000,100.592964 604.000000,112.000000 
	C570.645874,112.000000 537.291565,112.000000 503.468658,111.531342 
	C503.000000,74.375122 503.000000,37.687561 503.000000,1.000000 
z"/>
<path fill="#FFFFFF" opacity="1.000000" stroke="none" 
	d="
M461.000000,112.000000 
	C448.312439,112.000000 435.624878,112.000000 422.468658,111.531342 
	C422.000000,82.742668 422.000000,54.422649 422.000000,25.740608 
	C411.928436,25.740608 402.539795,25.740608 393.000000,25.740608 
	C393.000000,17.249393 393.000000,9.124697 393.000000,1.000000 
	C425.020905,1.000000 457.041779,1.000000 489.531342,1.468654 
	C490.000000,9.855764 490.000000,17.774221 490.000000,26.050999 
	C480.142181,26.050999 470.753174,26.050999 461.000000,26.050999 
	C461.000000,54.944599 461.000000,83.472298 461.000000,112.000000 
z"/>
<path fill="#000000" opacity="1.000000" stroke="none" 
	d="
M182.466858,112.000000 
	C182.000000,91.537209 182.000000,71.074417 182.000000,50.306080 
	C164.763000,50.306080 147.701874,50.306080 130.319687,50.306080 
	C130.319687,57.543911 130.319687,64.947258 130.319687,72.748672 
	C135.870117,72.748672 141.611420,72.748672 147.675156,72.748672 
	C147.675156,78.201813 147.675156,83.272926 147.675156,88.674332 
	C136.136642,88.674332 124.403419,88.674332 112.334175,88.674332 
	C112.334175,67.489075 112.334175,46.097271 112.334175,24.352333 
	C122.600479,24.352333 133.118332,24.352333 143.851410,24.352333 
	C143.851410,27.705875 143.851410,30.996607 143.851410,34.643211 
	C156.577255,34.643211 169.097321,34.643211 181.605759,34.643211 
	C183.236328,27.118164 181.453568,21.066563 175.488556,15.737349 
	C170.906921,11.644047 167.406555,6.340484 163.712662,1.287571 
	C175.020889,1.000000 186.041794,1.000000 197.615845,1.349228 
	C204.322845,11.854747 210.470444,22.014812 216.631790,32.166531 
	C228.461227,51.657200 240.368256,71.101273 252.095184,90.653389 
	C256.283691,97.636833 260.044159,104.877007 264.000000,112.000000 
	C253.312439,112.000000 242.624878,112.000000 231.468658,111.531342 
	C231.000000,96.095230 231.017426,81.127716 230.971741,66.160400 
	C230.967407,64.741692 230.976089,63.076633 230.289566,61.943470 
	C220.894775,46.436535 211.393692,30.993795 201.856171,15.573965 
	C201.261444,14.612432 200.146957,13.972386 198.000000,12.029754 
	C198.000000,46.377251 198.000000,79.188622 198.000000,112.000000 
	C192.977905,112.000000 187.955811,112.000000 182.466858,112.000000 
z"/>
<path fill="#FFFFFF" opacity="1.000000" stroke="none" 
	d="
M61.000000,112.000000 
	C41.104759,112.000000 21.209520,112.000000 1.000000,112.000000 
	C1.000000,104.315315 1.000000,96.626350 1.463376,88.468689 
	C5.187691,88.000000 8.448630,88.000000 11.700065,88.000000 
	C11.700065,66.732246 11.700065,45.946320 11.700065,25.000000 
	C7.934086,25.000000 4.467043,25.000000 1.000000,25.000000 
	C1.000000,17.041901 1.000000,9.083800 1.000000,1.000000 
	C20.687403,1.000000 40.375042,1.000000 60.531342,1.468645 
	C61.000000,9.523539 61.000000,17.109789 61.000000,25.067940 
	C57.135864,25.067940 53.726002,25.067940 50.322632,25.067940 
	C50.322632,46.257862 50.322632,67.064865 50.322632,88.249992 
	C54.049088,88.249992 57.453190,88.249992 61.000000,88.249992 
	C61.000000,96.420288 61.000000,104.210144 61.000000,112.000000 
z"/>
<path fill="#FFFFFF" opacity="1.000000" stroke="none" 
	d="
M381.000000,112.000000 
	C361.312439,112.000000 341.624878,112.000000 321.468658,111.531357 
	C321.000000,103.476463 321.000000,95.890221 321.000000,87.932068 
	C324.864136,87.932068 328.274017,87.932068 331.677368,87.932068 
	C331.677368,66.742188 331.677368,45.935162 331.677368,24.750027 
	C327.950897,24.750027 324.546814,24.750027 321.000000,24.750027 
	C321.000000,16.579716 321.000000,8.789858 321.000000,1.000000 
	C340.687561,1.000000 360.375122,1.000000 380.531342,1.468645 
	C381.000000,9.523534 381.000000,17.109779 381.000000,25.067934 
	C377.135864,25.067934 373.726013,25.067934 370.322632,25.067934 
	C370.322632,46.257858 370.322632,67.064850 370.322632,88.249977 
	C374.049103,88.249977 377.453186,88.249977 381.000000,88.249977 
	C381.000000,96.420280 381.000000,104.210144 381.000000,112.000000 
z"/>
<path fill="#000000" opacity="1.000000" stroke="none" 
	d="
M381.468658,112.000000 
	C381.000000,104.210144 381.000000,96.420280 381.000000,88.249977 
	C377.453186,88.249977 374.049103,88.249977 370.322632,88.249977 
	C370.322632,67.064850 370.322632,46.257858 370.322632,25.067934 
	C373.726013,25.067934 377.135864,25.067934 381.000000,25.067934 
	C381.000000,17.109779 381.000000,9.523534 381.000000,1.468645 
	C384.692902,1.000000 388.385834,1.000000 392.539368,1.000000 
	C393.000000,9.124697 393.000000,17.249393 393.000000,25.740608 
	C402.539795,25.740608 411.928436,25.740608 422.000000,25.740608 
	C422.000000,54.422649 422.000000,82.742668 422.000000,111.531342 
	C408.645782,112.000000 395.291534,112.000000 381.468658,112.000000 
z"/>
<path fill="#FFFFFF" opacity="1.000000" stroke="none" 
	d="
M264.468658,112.000000 
	C260.044159,104.877007 256.283691,97.636833 252.095184,90.653389 
	C240.368256,71.101273 228.461227,51.657200 216.631790,32.166531 
	C210.470444,22.014812 204.322845,11.854747 198.084503,1.349228 
	C211.354233,1.000000 224.708450,1.000000 238.241150,1.299052 
	C246.461349,14.751204 254.521545,27.893055 262.540283,41.060150 
	C273.390656,58.876930 284.246918,76.690338 295.019562,94.554100 
	C298.478424,100.289772 301.680450,106.180313 305.000000,112.000000 
	C291.645782,112.000000 278.291534,112.000000 264.468658,112.000000 
z"/>
<path fill="#000000" opacity="1.000000" stroke="none" 
	d="
M461.468658,112.000000 
	C461.000000,83.472298 461.000000,54.944599 461.000000,26.050999 
	C470.753174,26.050999 480.142181,26.050999 490.000000,26.050999 
	C490.000000,17.774221 490.000000,9.855764 490.000000,1.468654 
	C494.024536,1.000000 498.049103,1.000000 502.536804,1.000000 
	C503.000000,37.687561 503.000000,74.375122 503.000000,111.531342 
	C489.312439,112.000000 475.624878,112.000000 461.468658,112.000000 
z"/>
<path fill="#000000" opacity="1.000000" stroke="none" 
	d="
M305.466858,112.000000 
	C301.680450,106.180313 298.478424,100.289772 295.019562,94.554100 
	C284.246918,76.690338 273.390656,58.876930 262.540283,41.060150 
	C254.521545,27.893055 246.461349,14.751204 238.709808,1.299052 
	C249.687561,1.000000 260.375122,1.000000 271.531342,1.468657 
	C272.000000,16.590034 271.941803,31.243284 272.075317,45.894787 
	C272.091614,47.679840 272.845123,49.624832 273.758301,51.206192 
	C277.693909,58.021599 281.807220,64.734657 285.873169,71.474541 
	C291.764893,81.240982 297.671570,90.998405 303.571869,100.759682 
	C304.047913,100.680626 304.523956,100.601562 305.000000,100.522507 
	C305.000000,67.348335 305.000000,34.174168 305.000000,1.000000 
	C310.022095,1.000000 315.044189,1.000000 320.533142,1.000000 
	C321.000000,8.789858 321.000000,16.579716 321.000000,24.750027 
	C324.546814,24.750027 327.950897,24.750027 331.677368,24.750027 
	C331.677368,45.935162 331.677368,66.742188 331.677368,87.932068 
	C328.274017,87.932068 324.864136,87.932068 321.000000,87.932068 
	C321.000000,95.890221 321.000000,103.476463 321.000000,111.531357 
	C315.977905,112.000000 310.955811,112.000000 305.466858,112.000000 
z"/>
<path fill="#000000" opacity="1.000000" stroke="none" 
	d="
M61.468658,112.000000 
	C61.000000,104.210144 61.000000,96.420288 61.000000,88.249992 
	C57.453190,88.249992 54.049088,88.249992 50.322632,88.249992 
	C50.322632,67.064865 50.322632,46.257862 50.322632,25.067940 
	C53.726002,25.067940 57.135864,25.067940 61.000000,25.067940 
	C61.000000,17.109789 61.000000,9.523539 61.000000,1.468645 
	C72.020897,1.000000 83.041786,1.000000 94.531342,1.000001 
	C94.386826,2.107662 93.979919,3.416740 93.126938,4.290242 
	C87.661705,9.887030 81.980598,15.278183 76.647842,20.995667 
	C75.258873,22.484852 74.130859,24.886875 74.112213,26.881126 
	C73.927032,46.693417 73.937752,66.508636 74.101952,86.321289 
	C74.117378,88.182869 75.124092,90.440727 76.414009,91.818619 
	C82.660255,98.490829 89.160507,104.925240 95.285370,111.721970 
	C83.979103,112.000000 72.958214,112.000000 61.468658,112.000000 
z"/>
<path fill="#000000" opacity="1.000000" stroke="none" 
	d="
M604.000000,77.531342 
	C591.524353,78.000000 579.048767,78.000000 566.179871,78.000000 
	C566.179871,81.615166 566.179871,85.027359 566.179871,88.717026 
	C557.718018,88.717026 549.643127,88.717026 541.282654,88.717026 
	C541.282654,81.707619 541.282654,74.634789 541.282654,67.160080 
	C552.631470,67.160080 564.041077,67.160080 575.722778,67.160080 
	C575.722778,59.696102 575.722778,52.623634 575.722778,45.149284 
	C564.357422,45.149284 552.947937,45.149284 541.271851,45.149284 
	C541.271851,37.684361 541.271851,30.612383 541.271851,23.268787 
	C550.322266,23.268787 559.393982,23.268787 568.862671,23.268787 
	C568.862671,26.655190 568.862671,30.070326 568.862671,34.000000 
	C580.520203,34.000000 591.791443,34.000000 603.531372,34.000000 
	C604.000000,48.354229 604.000000,62.708454 604.000000,77.531342 
z"/>
<path fill="#FFFFFF" opacity="1.000000" stroke="none" 
	d="
M198.468658,112.000000 
	C198.000000,79.188622 198.000000,46.377251 198.000000,12.029754 
	C200.146957,13.972386 201.261444,14.612432 201.856171,15.573965 
	C211.393692,30.993795 220.894775,46.436535 230.289566,61.943470 
	C230.976089,63.076633 230.967407,64.741692 230.971741,66.160400 
	C231.017426,81.127716 231.000000,96.095230 231.000000,111.531342 
	C220.312439,112.000000 209.624878,112.000000 198.468658,112.000000 
z"/>
<path fill="#FFFFFF" opacity="1.000000" stroke="none" 
	d="
M304.531342,1.000000 
	C305.000000,34.174168 305.000000,67.348335 305.000000,100.522507 
	C304.523956,100.601562 304.047913,100.680626 303.571869,100.759682 
	C297.671570,90.998405 291.764893,81.240982 285.873169,71.474541 
	C281.807220,64.734657 277.693909,58.021599 273.758301,51.206192 
	C272.845123,49.624832 272.091614,47.679840 272.075317,45.894787 
	C271.941803,31.243284 272.000000,16.590034 272.000000,1.468657 
	C282.687561,1.000000 293.375122,1.000000 304.531342,1.000000 
z"/>
<path fill="#000000" opacity="1.000000" stroke="none" 
	d="
M1.000000,25.468658 
	C4.467043,25.000000 7.934086,25.000000 11.700065,25.000000 
	C11.700065,45.946320 11.700065,66.732246 11.700065,88.000000 
	C8.448630,88.000000 5.187691,88.000000 1.463376,88.000000 
	C1.000000,67.312439 1.000000,46.624878 1.000000,25.468658 
z"/>
</svg>