  <svg width="89" height="24" viewBox="0 0 89 24" fill="none" xmlns="http://www.w3.org/2000/svg">
      <path d="M0 5.30663C0 2.37586 2.37586 0 5.30663 0H18.6934C21.6241 0 24 2.37586 24 5.30663V18.6934C24 21.6241 21.6241 24 18.6934 24H5.30663C2.37586 24 0 21.6241 0 18.6934V5.30663Z" fill="#340BB8"/>
      <path d="M11.6964 7.66382C11.8083 7.71976 11.8419 7.79808 11.8195 7.92116C11.7636 8.36871 11.7524 8.80508 11.8643 9.24144C11.9426 9.56592 12.0992 9.83445 12.3006 10.0806C12.5692 10.4051 12.8601 10.7072 13.1398 11.0317C13.6209 11.6023 13.9566 12.2512 14.0908 12.9785C14.2363 13.7617 14.1356 14.5002 13.7104 15.1827C13.3412 15.7533 12.8377 16.1337 12.1664 16.3016C12.0097 16.3351 11.909 16.2344 11.9314 16.0666C11.9762 15.7533 12.0321 15.4512 12.0545 15.1379C12.0881 14.6568 11.9426 14.2093 11.6853 13.7953C11.4055 13.3589 11.0699 12.9673 10.7342 12.5757C10.309 12.0722 10.0069 11.5016 9.87267 10.8526C9.76078 10.2932 9.77197 9.73375 9.98456 9.19669C10.2643 8.46941 10.779 7.94354 11.5398 7.6862C11.5622 7.67501 11.5846 7.66382 11.5957 7.66382C11.6293 7.66382 11.6629 7.66382 11.6964 7.66382Z" fill="white"/>
      <path d="M34.731 7.644H31.875V16.02H34.731V7.644Z" fill="white"/>
      <path d="M42.1401 16.164C44.1561 16.164 45.6201 15.684 46.5441 14.712C46.5561 15.264 46.5681 16.02 46.5681 16.02H48.6321V11.328H42.1881V12.912H45.7761V12.936C45.7761 12.984 45.7401 13.056 45.6801 13.152C45.6081 13.236 45.4761 13.344 45.3081 13.452C45.1281 13.572 44.9121 13.68 44.6601 13.776C44.4081 13.872 44.0721 13.956 43.6401 14.028C43.2201 14.088 42.7521 14.124 42.2481 14.124C41.0841 14.124 40.2201 13.908 39.6441 13.464C39.0801 13.02 38.7921 12.492 38.7921 11.88V11.748C38.7921 10.248 39.9561 9.492 42.2721 9.492C44.1321 9.492 45.2121 9.888 45.5241 10.68H48.5601V10.668C48.5601 10.404 48.5121 10.152 48.4161 9.9C48.3321 9.648 48.1521 9.372 47.8761 9.06C47.6121 8.76 47.2641 8.496 46.8441 8.28C46.4241 8.052 45.8361 7.872 45.0921 7.716C44.3481 7.572 43.4841 7.5 42.5121 7.5H41.9841C40.9761 7.5 40.0881 7.584 39.3321 7.776C38.5641 7.968 37.9641 8.196 37.5321 8.484C37.1001 8.76 36.7401 9.096 36.4641 9.48C36.1881 9.864 36.0081 10.236 35.9241 10.572C35.8401 10.92 35.8041 11.268 35.8041 11.64V11.952C35.8041 12.324 35.8521 12.684 35.9481 13.044C36.0561 13.392 36.2481 13.764 36.5241 14.16C36.8001 14.544 37.1601 14.88 37.5921 15.168C38.0361 15.456 38.6241 15.696 39.3561 15.888C40.1001 16.068 40.9401 16.164 41.8881 16.164H42.1401Z" fill="white"/>
      <path d="M49.9339 7.632V16.032H52.7539V10.464L58.9699 16.032H61.8019V7.632H58.9699V12.912L53.1259 7.632H49.9339Z" fill="white"/>
      <path d="M66.1021 7.644H63.2461V16.02H66.1021V7.644Z" fill="white"/>
      <path d="M70.8832 16.032H73.7752V9.624H77.7232V7.632H66.9472V9.624H70.8832V16.032Z" fill="white"/>
      <path d="M78.5745 7.608V16.02H88.3665V14.064H81.4065V12.684H88.0785V10.764H81.4065V9.516H88.2345V7.608H78.5745Z" fill="white"/>
  </svg>