<?xml version="1.0" standalone="no"?>
<!DOCTYPE svg PUBLIC "-//W3C//DTD SVG 20010904//EN"
 "http://www.w3.org/TR/2001/REC-SVG-20010904/DTD/svg10.dtd">
<svg version="1.0" xmlns="http://www.w3.org/2000/svg"
 width="295.000000pt" height="56.000000pt" viewBox="0 0 295.000000 56.000000"
 preserveAspectRatio="xMidYMid meet">

<g transform="translate(0.000000,56.000000) scale(0.100000,-0.100000)"
fill="#000000" stroke="none">
<path d="M0 501 c0 -58 1 -60 28 -63 l27 -3 0 -155 0 -155 -27 -3 c-27 -3 -28
-5 -28 -63 l0 -59 145 0 145 0 0 60 c0 57 -1 60 -25 60 l-25 0 0 160 0 160 25
0 c24 0 25 3 25 60 l0 60 -145 0 -145 0 0 -59z"/>
<path d="M422 507 l-52 -53 0 -175 0 -175 53 -52 53 -52 212 0 212 0 0 155 0
155 -125 0 -125 0 0 -55 0 -55 46 0 45 0 -3 -42 -3 -43 -90 0 -90 0 0 165 0
165 80 0 c80 0 80 0 83 -27 l3 -28 90 0 89 0 0 28 c0 20 -15 47 -47 85 l-48
56 -165 0 -166 1 -52 -53z"/>
<path d="M990 555 c0 -4 75 -130 166 -281 l167 -274 93 0 c52 0 94 4 94 9 0 5
-74 130 -163 278 l-164 268 -96 3 c-54 1 -97 0 -97 -3z"/>
<path d="M1360 436 l0 -125 74 -121 c41 -68 77 -125 80 -128 4 -3 6 108 6 246
l0 252 -80 0 -80 0 0 -124z"/>
<path d="M1900 500 l0 -60 70 0 70 0 0 -220 0 -220 100 0 100 0 0 220 0 220
70 0 70 0 0 60 0 60 -240 0 -240 0 0 -60z"/>
<path d="M2450 280 l0 -280 250 0 250 0 0 85 0 85 -95 0 -95 0 0 -30 0 -31
-62 3 -63 3 -3 58 -3 57 91 0 90 0 0 55 0 55 -90 0 -90 0 0 55 0 56 73 -3 c66
-3 72 -5 75 -25 3 -22 8 -23 88 -23 l84 0 0 80 0 80 -250 0 -250 0 0 -280z"/>
<path d="M1700 524 c-67 -37 -95 -84 -94 -158 0 -52 7 -73 42 -139 44 -81 53
-137 32 -191 -12 -32 -7 -32 33 -4 133 91 158 179 90 317 -32 64 -38 86 -38
139 0 36 -4 62 -10 62 -5 0 -30 -12 -55 -26z"/>
<path d="M990 247 l0 -247 80 0 80 0 0 120 0 120 -71 117 c-40 65 -76 122 -80
128 -5 5 -9 -98 -9 -238z"/>
</g>
</svg>
