<svg version="1.1" id="Layer_1" xmlns="http://www.w3.org/2000/svg" xmlns:xlink="http://www.w3.org/1999/xlink" x="0px" y="0px"
	 width="100%" viewBox="0 0 590 112" enable-background="new 0 0 590 112" xml:space="preserve">
<path fill="#000000" opacity="1.000000" stroke="none" 
	d="
M238.000000,1.000002 
	C249.020889,1.000000 260.041779,1.000000 271.531342,1.468657 
	C272.000000,16.904009 271.944427,31.871183 272.073120,46.836769 
	C272.088531,48.625835 272.796814,50.585503 273.709564,52.161709 
	C279.733032,62.563435 285.832428,72.922859 292.045868,83.212273 
	C295.886261,89.571899 299.971588,95.783607 303.946960,102.061714 
	C304.297974,101.995598 304.648987,101.929482 305.000000,101.863373 
	C305.000000,68.242249 305.000000,34.621124 305.000000,1.000000 
	C320.020905,1.000000 335.041779,1.000000 350.822815,1.316109 
	C350.223236,2.421570 348.851868,3.191551 347.505920,4.003714 
	C342.427948,7.067850 336.777985,9.485021 332.390961,13.338450 
	C317.351807,26.548353 318.273499,47.614017 327.970673,63.461639 
	C330.320892,67.302483 333.092712,70.961624 334.896393,75.046227 
	C340.147125,86.937210 341.449554,98.945274 334.492340,111.225304 
	C337.651337,110.263092 340.450775,108.924744 343.128448,107.375908 
	C352.630219,101.879814 360.610443,94.627419 365.909149,85.020065 
	C373.522766,71.215324 370.491608,57.587894 362.868652,45.032444 
	C354.354858,31.009764 350.986389,16.744637 357.000000,1.000000 
	C364.687592,1.000000 372.375153,1.000000 380.531372,1.468654 
	C381.000000,9.855764 381.000000,17.774221 381.000000,26.052177 
	C390.525208,26.052177 399.581940,26.052177 409.000000,26.052177 
	C409.000000,55.279533 409.000000,84.139763 409.000000,113.000000 
	C374.645782,113.000000 340.291534,113.000000 305.467163,112.628906 
	C300.323364,104.413483 295.714874,96.529434 290.963470,88.732483 
	C278.261566,67.888977 265.451233,47.111500 252.782684,26.247820 
	C247.721680,17.912907 242.919815,9.420643 238.000000,1.000002 
z"/>
<path fill="#FFFFFF" opacity="1.000000" stroke="none" 
	d="
M95.000000,1.000001 
	C117.354225,1.000000 139.708450,1.000000 162.245209,1.282646 
	C165.913757,5.508102 169.253967,9.592717 172.919067,13.361366 
	C178.809082,19.417784 183.595123,25.722130 180.399765,34.672615 
	C168.253296,34.672615 156.182526,34.672615 143.728973,34.672615 
	C143.728973,30.934795 143.728973,27.523916 143.728973,24.326809 
	C132.932617,24.326809 122.530891,24.326809 112.314651,24.326809 
	C112.314651,46.383282 112.314651,68.111893 112.314651,89.690163 
	C124.365944,89.690163 136.100601,89.690163 147.689972,89.690163 
	C147.689972,83.971779 147.689972,78.567093 147.689972,72.776535 
	C141.641907,72.776535 135.899979,72.776535 130.308746,72.776535 
	C130.308746,64.972488 130.308746,57.568260 130.308746,50.300377 
	C147.350098,50.300377 164.081207,50.300377 181.000000,50.300377 
	C181.000000,71.400116 181.000000,92.200058 181.000000,113.000000 
	C152.645767,113.000000 124.291542,113.000000 95.467377,112.644554 
	C88.829567,105.865128 82.557304,99.535950 76.572769,92.945496 
	C75.205605,91.439911 74.144432,89.044121 74.111359,87.038757 
	C73.895012,73.920547 73.992912,60.797028 74.002640,47.675251 
	C74.008545,39.703491 71.832901,30.808023 74.674591,24.016897 
	C77.581177,17.070707 85.468430,12.235540 91.063904,6.369890 
	C92.583000,4.777448 93.698997,2.800483 95.000000,1.000001 
z"/>
<path fill="#FFFFFF" opacity="1.000000" stroke="none" 
	d="
M490.000000,1.000000 
	C523.556396,1.000000 557.112732,1.000000 591.000000,1.000000 
	C591.000000,11.685285 591.000000,22.373983 590.531372,33.531342 
	C578.790039,34.000000 567.517456,34.000000 555.861450,34.000000 
	C555.861450,30.406038 555.861450,27.320179 555.861450,24.268661 
	C546.395569,24.268661 537.323425,24.268661 528.271851,24.268661 
	C528.271851,31.278742 528.271851,38.017017 528.271851,45.149204 
	C539.947754,45.149204 551.356750,45.149204 562.722778,45.149204 
	C562.722778,52.623569 562.722778,59.696041 562.722778,67.160049 
	C551.041077,67.160049 539.631470,67.160049 528.282593,67.160049 
	C528.282593,74.968269 528.282593,82.373863 528.282593,89.717049 
	C536.643005,89.717049 544.717896,89.717049 553.179810,89.717049 
	C553.179810,86.027412 553.179810,82.615211 553.179810,79.000000 
	C566.048767,79.000000 578.524353,79.000000 591.000000,79.000000 
	C591.000000,90.296486 591.000000,101.592964 591.000000,113.000000 
	C557.645874,113.000000 524.291565,113.000000 490.468658,112.531342 
	C490.000000,75.041786 490.000000,38.020893 490.000000,1.000000 
z"/>
<path fill="#FFFFFF" opacity="1.000000" stroke="none" 
	d="
M409.468658,113.000000 
	C409.000000,84.139763 409.000000,55.279533 409.000000,26.052177 
	C399.581940,26.052177 390.525208,26.052177 381.000000,26.052177 
	C381.000000,17.774221 381.000000,9.855764 381.000000,1.468654 
	C412.687561,1.000000 444.375122,1.000000 476.531342,1.468654 
	C477.000000,9.855764 477.000000,17.774221 477.000000,26.052177 
	C467.474792,26.052177 458.418060,26.052177 449.000000,26.052177 
	C449.000000,55.279533 449.000000,84.139763 449.000000,113.000000 
	C435.979095,113.000000 422.958221,113.000000 409.468658,113.000000 
z"/>
<path fill="#000000" opacity="1.000000" stroke="none" 
	d="
M181.467606,113.000000 
	C181.000000,92.200058 181.000000,71.400116 181.000000,50.300377 
	C164.081207,50.300377 147.350098,50.300377 130.308746,50.300377 
	C130.308746,57.568260 130.308746,64.972488 130.308746,72.776535 
	C135.899979,72.776535 141.641907,72.776535 147.689972,72.776535 
	C147.689972,78.567093 147.689972,83.971779 147.689972,89.690163 
	C136.100601,89.690163 124.365944,89.690163 112.314651,89.690163 
	C112.314651,68.111893 112.314651,46.383282 112.314651,24.326809 
	C122.530891,24.326809 132.932617,24.326809 143.728973,24.326809 
	C143.728973,27.523916 143.728973,30.934795 143.728973,34.672615 
	C156.182526,34.672615 168.253296,34.672615 180.399765,34.672615 
	C183.595123,25.722130 178.809082,19.417784 172.919067,13.361366 
	C169.253967,9.592717 165.913757,5.508102 162.713867,1.282646 
	C174.354233,1.000000 185.708450,1.000000 197.532867,1.372308 
	C198.561157,2.889415 199.032700,4.086745 199.690643,5.170944 
	C206.944565,17.124256 214.248489,29.047235 221.497665,41.003418 
	C232.745895,59.555397 244.069260,78.063332 255.122498,96.731018 
	C258.181580,101.897484 260.397308,107.563293 263.000000,113.000000 
	C252.645767,113.000000 242.291550,113.000000 231.468658,112.531342 
	C231.000000,97.419289 231.090622,82.774780 230.910172,68.133606 
	C230.880325,65.713539 230.145691,63.024059 228.917587,60.942364 
	C221.409195,48.215450 213.693954,35.609924 205.979675,23.005543 
	C203.825089,19.485134 201.440872,16.105246 199.162003,12.660894 
	C198.774658,12.868150 198.387329,13.075405 198.000000,13.282660 
	C198.000000,46.521774 198.000000,79.760887 198.000000,113.000000 
	C192.645065,113.000000 187.290146,113.000000 181.467606,113.000000 
z"/>
<path fill="#FFFFFF" opacity="1.000000" stroke="none" 
	d="
M1.000000,26.000000 
	C1.000000,17.710312 1.000000,9.420626 1.000000,1.000000 
	C20.354053,1.000000 39.708370,1.000000 59.531342,1.468654 
	C60.000000,9.855968 60.000000,17.774628 60.000000,26.065899 
	C56.139568,26.065899 52.729019,26.065899 49.323551,26.065899 
	C49.323551,46.923923 49.323551,67.398888 49.323551,88.252029 
	C53.051044,88.252029 56.455326,88.252029 60.000000,88.252029 
	C60.000000,96.755074 60.000000,104.877541 60.000000,113.000000 
	C40.436344,113.000000 20.872684,113.000000 1.000000,113.000000 
	C1.000000,104.981766 1.000000,96.959557 1.463376,88.468674 
	C5.187531,88.000000 8.448311,88.000000 11.699840,88.000000 
	C11.699840,67.065704 11.699840,46.612774 11.699840,26.000000 
	C7.933782,26.000000 4.466891,26.000000 1.000000,26.000000 
z"/>
<path fill="#FFFFFF" opacity="1.000000" stroke="none" 
	d="
M263.468658,113.000000 
	C260.397308,107.563293 258.181580,101.897484 255.122498,96.731018 
	C244.069260,78.063332 232.745895,59.555397 221.497665,41.003418 
	C214.248489,29.047235 206.944565,17.124256 199.690643,5.170944 
	C199.032700,4.086745 198.561157,2.889415 198.001526,1.372308 
	C211.020889,1.000000 224.041794,1.000000 237.531342,1.000002 
	C242.919815,9.420643 247.721680,17.912907 252.782684,26.247820 
	C265.451233,47.111500 278.261566,67.888977 290.963470,88.732483 
	C295.714874,96.529434 300.323364,104.413483 304.998505,112.628906 
	C291.312439,113.000000 277.624878,113.000000 263.468658,113.000000 
z"/>
<path fill="#000000" opacity="1.000000" stroke="none" 
	d="
M449.468658,113.000000 
	C449.000000,84.139763 449.000000,55.279533 449.000000,26.052177 
	C458.418060,26.052177 467.474792,26.052177 477.000000,26.052177 
	C477.000000,17.774221 477.000000,9.855764 477.000000,1.468654 
	C481.024536,1.000000 485.049103,1.000000 489.536804,1.000000 
	C490.000000,38.020893 490.000000,75.041786 490.000000,112.531342 
	C476.645782,113.000000 463.291534,113.000000 449.468658,113.000000 
z"/>
<path fill="#FFFFFF" opacity="1.000000" stroke="none" 
	d="
M356.571533,1.000000 
	C350.986389,16.744637 354.354858,31.009764 362.868652,45.032444 
	C370.491608,57.587894 373.522766,71.215324 365.909149,85.020065 
	C360.610443,94.627419 352.630219,101.879814 343.128448,107.375908 
	C340.450775,108.924744 337.651337,110.263092 334.492340,111.225304 
	C341.449554,98.945274 340.147125,86.937210 334.896393,75.046227 
	C333.092712,70.961624 330.320892,67.302483 327.970673,63.461639 
	C318.273499,47.614017 317.351807,26.548353 332.390961,13.338450 
	C336.777985,9.485021 342.427948,7.067850 347.505920,4.003714 
	C348.851868,3.191551 350.223236,2.421570 351.291473,1.316109 
	C352.714355,1.000000 354.428711,1.000000 356.571533,1.000000 
z"/>
<path fill="#000000" opacity="1.000000" stroke="none" 
	d="
M60.468658,113.000000 
	C60.000000,104.877541 60.000000,96.755074 60.000000,88.252029 
	C56.455326,88.252029 53.051044,88.252029 49.323551,88.252029 
	C49.323551,67.398888 49.323551,46.923923 49.323551,26.065899 
	C52.729019,26.065899 56.139568,26.065899 60.000000,26.065899 
	C60.000000,17.774628 60.000000,9.855968 60.000000,1.468654 
	C71.354225,1.000000 82.708458,1.000000 94.531342,1.000001 
	C93.698997,2.800483 92.583000,4.777448 91.063904,6.369890 
	C85.468430,12.235540 77.581177,17.070707 74.674591,24.016897 
	C71.832901,30.808023 74.008545,39.703491 74.002640,47.675251 
	C73.992912,60.797028 73.895012,73.920547 74.111359,87.038757 
	C74.144432,89.044121 75.205605,91.439911 76.572769,92.945496 
	C82.557304,99.535950 88.829567,105.865128 94.998718,112.644554 
	C83.645775,113.000000 72.291542,113.000000 60.468658,113.000000 
z"/>
<path fill="#000000" opacity="1.000000" stroke="none" 
	d="
M591.000000,78.531342 
	C578.524353,79.000000 566.048767,79.000000 553.179810,79.000000 
	C553.179810,82.615211 553.179810,86.027412 553.179810,89.717049 
	C544.717896,89.717049 536.643005,89.717049 528.282593,89.717049 
	C528.282593,82.373863 528.282593,74.968269 528.282593,67.160049 
	C539.631470,67.160049 551.041077,67.160049 562.722778,67.160049 
	C562.722778,59.696041 562.722778,52.623569 562.722778,45.149204 
	C551.356750,45.149204 539.947754,45.149204 528.271851,45.149204 
	C528.271851,38.017017 528.271851,31.278742 528.271851,24.268661 
	C537.323425,24.268661 546.395569,24.268661 555.861450,24.268661 
	C555.861450,27.320179 555.861450,30.406038 555.861450,34.000000 
	C567.517456,34.000000 578.790039,34.000000 590.531372,34.000000 
	C591.000000,48.687561 591.000000,63.375122 591.000000,78.531342 
z"/>
<path fill="#FFFFFF" opacity="1.000000" stroke="none" 
	d="
M304.531342,1.000000 
	C305.000000,34.621124 305.000000,68.242249 305.000000,101.863373 
	C304.648987,101.929482 304.297974,101.995598 303.946960,102.061714 
	C299.971588,95.783607 295.886261,89.571899 292.045868,83.212273 
	C285.832428,72.922859 279.733032,62.563435 273.709564,52.161709 
	C272.796814,50.585503 272.088531,48.625835 272.073120,46.836769 
	C271.944427,31.871183 272.000000,16.904009 272.000000,1.468657 
	C282.687561,1.000000 293.375122,1.000000 304.531342,1.000000 
z"/>
<path fill="#FFFFFF" opacity="1.000000" stroke="none" 
	d="
M198.468658,113.000000 
	C198.000000,79.760887 198.000000,46.521774 198.000000,13.282660 
	C198.387329,13.075405 198.774658,12.868150 199.162003,12.660894 
	C201.440872,16.105246 203.825089,19.485134 205.979675,23.005543 
	C213.693954,35.609924 221.409195,48.215450 228.917587,60.942364 
	C230.145691,63.024059 230.880325,65.713539 230.910172,68.133606 
	C231.090622,82.774780 231.000000,97.419289 231.000000,112.531342 
	C220.312439,113.000000 209.624878,113.000000 198.468658,113.000000 
z"/>
<path fill="#000000" opacity="1.000000" stroke="none" 
	d="
M1.000000,26.468658 
	C4.466891,26.000000 7.933782,26.000000 11.699840,26.000000 
	C11.699840,46.612774 11.699840,67.065704 11.699840,88.000000 
	C8.448311,88.000000 5.187531,88.000000 1.463376,88.000000 
	C1.000000,67.645775 1.000000,47.291542 1.000000,26.468658 
z"/>
</svg>