<svg width="12" height="12" viewBox="0 0 12 12" fill="none" xmlns="http://www.w3.org/2000/svg">
    <path d="M5.99984 11.8333C5.76373 11.8333 5.56595 11.7533 5.4065 11.5933C5.2465 11.4338 5.1665 11.2361 5.1665 11V6.83329H0.999837C0.763726 6.83329 0.565671 6.75329 0.405671 6.59329C0.246226 6.43385 0.166504 6.23607 0.166504 5.99996C0.166504 5.76385 0.246226 5.56579 0.405671 5.40579C0.565671 5.24635 0.763726 5.16663 0.999837 5.16663H5.1665V0.999959C5.1665 0.763848 5.2465 0.565793 5.4065 0.405793C5.56595 0.246348 5.76373 0.166626 5.99984 0.166626C6.23595 0.166626 6.434 0.246348 6.594 0.405793C6.75345 0.565793 6.83317 0.763848 6.83317 0.999959V5.16663H10.9998C11.2359 5.16663 11.4337 5.24635 11.5932 5.40579C11.7532 5.56579 11.8332 5.76385 11.8332 5.99996C11.8332 6.23607 11.7532 6.43385 11.5932 6.59329C11.4337 6.75329 11.2359 6.83329 10.9998 6.83329H6.83317V11C6.83317 11.2361 6.75345 11.4338 6.594 11.5933C6.434 11.7533 6.23595 11.8333 5.99984 11.8333Z" fill="white"/>
</svg>    